<?xml version="1.0" standalone="no"?>
<!DOCTYPE svg PUBLIC "-//W3C//DTD SVG 1.1//EN" "http://www.w3.org/Graphics/SVG/1.1/DTD/svg11.dtd" >
<svg xmlns="http://www.w3.org/2000/svg" xmlns:xlink="http://www.w3.org/1999/xlink" version="1.1">
<metadata>
Created by FontForge 20170731 at Sun Feb  5 23:35:22 2023
 By Aleksey,,,
(c) Copyright Copyright 2006 House Industries/Brand Design Co., Inc. All Rights Reserved., FFDec v.18.3.5.
</metadata>
<defs>
<font id="BurbankBigRegularBlack" horiz-adv-x="236" >
  <font-face 
    font-family="Burbank Big Regular Black"
    font-weight="400"
    font-style="italic"
    font-stretch="normal"
    units-per-em="1024"
    panose-1="0 0 0 0 0 0 0 0 0 0"
    ascent="819"
    descent="-205"
    x-height="521"
    cap-height="712"
    bbox="-93 -288.021 1152.02 984.141"
    underline-thickness="60"
    underline-position="-90"
    slope="10"
    unicode-range="U+0020-2122"
  />
<missing-glyph horiz-adv-x="512" 
d="M0 683v-683h438v683h-438zM365 610v-537h-292v537h292z" />
    <glyph glyph-name=".notdef" horiz-adv-x="512" 
d="M0 683v-683h438v683h-438zM365 610v-537h-292v537h292z" />
    <glyph glyph-name="glyph1" horiz-adv-x="0" 
 />
    <glyph glyph-name="glyph2" horiz-adv-x="512" 
 />
    <glyph glyph-name="space" unicode=" " 
 />
    <glyph glyph-name="exclam" unicode="!" horiz-adv-x="290" 
d="M50 260v0q85 3 139 3q53 0 55 -1q21 452 24 452q-95 -2 -169 0q-74 1 -78 2q16 -212 23 -333q7 -120 6 -123v0v0zM149 -12v0q56 0 93 31t39 88q0 50 -34 85q-34 34 -100 36q-69 -2 -103 -34q-35 -33 -35 -84q5 -118 140 -122v0v0z" />
    <glyph glyph-name="quotedbl" unicode="&#x22;" horiz-adv-x="367" 
d="M204 446v0q123 -1 129 -2q10 131 18 205q8 73 8 75q-163 2 -163 4q6 -155 7 -219t0 -62l1 -1v0v0zM31 448v0q130 9 130 7q4 259 6 261q-158 -6 -160 -5q12 -116 18 -188q6 -73 6 -75v0v0z" />
    <glyph glyph-name="numbersign" unicode="#" horiz-adv-x="535" 
d="M228 491v0q40 1 74 1q2 -58 1 -108h-75v107v0v0zM302 152v0q149 2 150 0q-2 47 -2 91h72q-2 142 1 145q-38 -2 -75 -2q-1 58 -1 106h71q-1 139 2 144l-73 -2q0 34 1 59v27q-141 -4 -149 -1l2 -87q-39 -1 -73 -1q1 72 1 76q-67 -3 -107 -2q-41 1 -42 1q2 -42 2 -75
q-68 1 -69 1q3 -144 1 -146q36 0 69 2q2 -55 1 -104q-73 1 -75 2q4 -141 1 -146l74 1q-1 -71 -1 -74q144 0 150 -3q-1 38 -2 79h72q-1 -87 -1 -91v0v0z" />
    <glyph glyph-name="dollar" unicode="$" horiz-adv-x="546" 
d="M377 -45v0q-1 6 -3 95q77 16 123 61t47 124q2 72 -46 113t-173 62q-97 18 -93 61q-2 39 42 41q47 -3 48 -79q211 0 216 -2q-17 193 -169 223q5 42 12 112q3 0 -208 0q1 -5 7 -105q-165 -33 -171 -173q-5 -151 202 -187q69 -14 91 -31q23 -16 22 -36q-2 -38 -48 -39
q-55 2 -56 82q-101 2 -160 4t-61 2q7 -184 181 -228l-6 -97q7 2 204 -2l-1 -1v0v0z" />
    <glyph glyph-name="percent" unicode="%" horiz-adv-x="764" 
d="M573 72v0q-16 -2 -24 21q-9 23 -9 85q0 95 33 93q33 7 32 -99q0 -58 -9 -80q-8 -21 -23 -20v0v0zM571 -26v0q83 0 135 48q51 48 53 152q1 89 -46 143q-46 55 -139 56q-92 -2 -139 -56q-47 -55 -47 -138q0 -92 45 -147q44 -55 138 -56v-2v0v0zM180 -15v0q-1 -2 41 61
q43 64 148 222t293 438q-5 0 -91 6q-2 -2 -125 -190t-354 -527q4 0 88 -10v0v0zM191 438v0q-35 -7 -34 105q-1 99 33 97q17 1 25 -21q9 -21 8 -79q0 -60 -8 -82q-9 -21 -24 -20v0v0zM189 344v0q82 -1 134 43q51 45 53 151q0 196 -185 202q-88 -1 -137 -52q-48 -50 -49 -134
q-1 -91 41 -149q43 -59 143 -61v0v0z" />
    <glyph glyph-name="ampersand" unicode="&#x26;" horiz-adv-x="703" 
d="M311 123v0q-70 5 -75 71q1 26 15 47q58 -47 126 -96q-33 -22 -65 -22h-1v0v0zM253 517v0q3 58 50 59q49 -3 50 -57q-4 -59 -64 -91q-35 45 -36 89v0v0zM282 -34v0q141 -1 244 75l76 -55q102 144 102 141l-70 44q33 60 54 142q-1 0 -51 14q-51 14 -132 40q-14 -52 -31 -93
q-46 32 -84 61q63 30 111 75q48 46 50 125q-2 87 -67 142q-66 54 -168 56q-119 -1 -189 -54q-71 -54 -72 -153q1 -87 75 -170q-51 -27 -86 -69t-37 -111q3 -105 81 -158q77 -54 195 -54l-1 2v0v0z" />
    <glyph glyph-name="quotesingle" unicode="'" horiz-adv-x="242" 
d="M18 453v0q124 1 130 -1q19 259 22 266q-162 -1 -162 2q8 -149 10 -209q1 -60 0 -58v0v0z" />
    <glyph glyph-name="parenleft" unicode="(" horiz-adv-x="345" 
d="M156 -152v0q1 1 53 18t138 41q-103 230 -99 405q-1 239 94 413q-5 1 -176 63q-74 -92 -108 -216t-34 -264q0 -113 32 -232q31 -120 100 -228v0v0z" />
    <glyph glyph-name="parenright" unicode=")" horiz-adv-x="346" 
d="M194 -160v0q67 114 99 237t31 239q1 129 -31 255q-32 127 -106 225q-174 -65 -182 -66q96 -181 95 -417q-2 -197 -99 -413q86 -24 139 -42q52 -17 54 -18v0v0z" />
    <glyph glyph-name="asterisk" unicode="*" horiz-adv-x="356" 
d="M144 356v0q-1 2 35 100q13 -33 32 -91q5 5 130 52q-1 -3 -60 96q26 3 74 6q-4 8 -25 133q-1 -2 -92 -26q3 32 13 102q-2 -1 -46 -3t-110 -2q1 5 16 -97q-29 7 -87 23q0 -1 -5 -36t-17 -92q-2 1 75 -7q-12 -23 -59 -98q3 1 126 -60v0v0z" />
    <glyph glyph-name="plus" unicode="+" horiz-adv-x="427" 
d="M127 112v0q7 0 174 1q0 5 -2 136l117 -1q-2 -8 3 164q-8 -1 -120 -1l2 138q1 -1 -38 0q-38 0 -132 3q0 -1 1 -40v-101l-120 3q3 -7 2 -166q7 -1 117 1q0 -69 -2 -138l-2 1v0v0z" />
    <glyph glyph-name="comma" unicode="," horiz-adv-x="255" 
d="M97 -148v0q144 117 147 232q-4 125 -117 132q-112 -7 -119 -116q2 -68 64 -98q-10 -24 -70 -82q-2 2 95 -68v0v0z" />
    <glyph glyph-name="hyphen" unicode="-" 
d="M12 244v0q1 0 77 1q77 0 208 -1q0 -3 0 32t3 145q2 -1 -66 -1t-224 4q3 7 2 -180v0v0z" />
    <glyph glyph-name="period" unicode="." horiz-adv-x="255" 
d="M129 -12v0q112 -1 119 120q-5 108 -119 116q-113 -4 -120 -116q0 -52 30 -86q30 -33 90 -34v0v0z" />
    <glyph glyph-name="slash" unicode="/" horiz-adv-x="445" 
d="M-5 -128v0q1 0 54 1q53 0 143 -1q-2 -4 57 205q60 209 202 679q-3 -3 -197 0q-1 -4 -35 -127q-35 -124 -93 -324q-59 -200 -131 -433v0v0z" />
    <glyph glyph-name="zero" unicode="0" horiz-adv-x="650" 
d="M327 148v0q-73 -8 -71 198q0 112 16 156q17 44 55 42q32 1 50 -43q19 -43 19 -145q0 -127 -19 -169t-50 -39v0v0zM326 -28v0q305 3 310 380q-3 370 -310 367q-143 1 -226 -89q-82 -91 -84 -282q2 -181 83 -278t227 -98v0v0z" />
    <glyph glyph-name="one" unicode="1" horiz-adv-x="438" 
d="M153 -2v0q1 0 61 -1q61 0 168 2q0 3 -2 101q-1 98 -3 255q-1 158 -1 341q-4 1 -136 16q-2 -1 -65 -32q-63 -30 -174 -81q3 -5 60 -200q4 4 93 43q1 -40 1 -146t-2 -298v0v0z" />
    <glyph glyph-name="two" unicode="2" horiz-adv-x="590" 
d="M566 0v0q-1 -4 -3 205q-5 -4 -254 -9q129 42 201 121q73 78 74 180q0 106 -66 168q-67 61 -208 63q-319 -3 -296 -331q223 3 228 1q-6 86 9 123q15 36 48 35q45 -3 46 -67q-2 -79 -87 -143q-86 -65 -241 -110q0 -3 1 -70q2 -66 6 -160q-2 3 542 -6v0v0z" />
    <glyph glyph-name="three" unicode="3" horiz-adv-x="614" 
d="M312 -26v0q123 -1 210 54q87 54 91 171q-2 66 -37 108q-35 43 -88 58q104 38 112 149q-1 95 -74 155t-204 62q-322 5 -307 -274q1 0 64 1q64 1 173 1q-10 104 61 105q53 0 55 -63q-1 -50 -44 -61q-46 -17 -127 -12q7 -145 6 -147q81 7 128 -8q40 -15 40 -61
q-4 -68 -61 -64q-68 -5 -60 100q-97 5 -168 8q-71 4 -74 4q-25 -278 305 -284l-1 -2v0v0z" />
    <glyph glyph-name="four" unicode="4" horiz-adv-x="623" 
d="M225 296v0q29 73 108 243v-88t-1 -155h-107v0v0zM330 -2v0q-1 0 50 -2q51 -1 171 3l-2 116h68q0 184 1 183q-36 -1 -70 -1q-1 161 1 410q3 -1 -72 1q-76 2 -264 8q6 6 -207 -415q1 -108 3 -150q2 -43 2 -41l320 4l-1 -116v0v0z" />
    <glyph glyph-name="five" unicode="5" horiz-adv-x="611" 
d="M311 -21v0q134 0 214 63t81 196q2 99 -47 168q-49 70 -163 73q-90 -1 -154 -53q0 56 1 94q321 6 321 5q1 104 2 148t2 43q-279 -7 -410 -9q-130 -1 -129 -1q-2 -179 -5 -298t-3 -124q100 -7 164 -12q65 -5 67 -5q9 68 55 68q59 -2 58 -103q-4 -91 -56 -87q-57 -2 -62 93
q-1 0 -64 1q-62 0 -172 3q0 -123 74 -192q73 -69 226 -70v-1v0v0z" />
    <glyph glyph-name="six" unicode="6" horiz-adv-x="630" 
d="M329 308v0q55 -1 53 -73q2 -83 -51 -84q-56 -7 -69 133q31 23 66 24h1v0v0zM323 -25v0q128 -1 213 63q86 63 89 204q0 96 -49 152q-48 56 -154 57q-96 -3 -163 -63q3 93 19 132q16 38 48 37q40 1 44 -74q5 4 240 1q-1 110 -69 176q-67 66 -208 68q-166 -3 -242 -105
q-76 -103 -75 -276q0 -367 308 -371l-1 -1v0v0z" />
    <glyph glyph-name="seven" unicode="7" horiz-adv-x="529" 
d="M111 -12v0q-3 2 244 -9q-7 175 32 295q40 121 138 207q-1 -2 -2 52q-2 53 -2 183q6 -1 -108 -3q-114 -3 -403 -5q2 -5 -3 -208q3 0 84 3q80 3 205 4q-190 -168 -184 -518l-1 -1v0v0z" />
    <glyph glyph-name="eight" unicode="8" horiz-adv-x="636" 
d="M330 423v0q-75 25 -79 88q-4 55 66 61q64 -2 66 -66q-3 -57 -53 -83v0v0zM320 140v0q-75 2 -76 66q-3 52 67 77q68 -20 73 -82q-5 -62 -64 -61v0v0zM329 -24v0q124 -1 212 49q89 51 93 174q-5 116 -129 157q116 48 119 166q0 92 -75 149q-75 58 -226 60q-153 -2 -228 -58
t-75 -150q6 -120 108 -174q-122 -33 -125 -150q-2 -100 75 -159t250 -60l1 -4v0v0z" />
    <glyph glyph-name="nine" unicode="9" horiz-adv-x="626" 
d="M313 384v0q-66 -2 -65 93q0 89 60 91q29 2 45 -35q16 -36 19 -134q-31 -15 -59 -15v0v0zM304 -20v0q141 -2 224 84q82 86 84 280q-6 395 -308 388q-135 -1 -214 -65q-80 -64 -82 -184q2 -212 226 -219q88 0 138 44q-2 -90 -18 -122q-17 -33 -47 -31q-58 -1 -62 83
q-4 -5 -235 8q1 -119 76 -192q74 -72 218 -74v0v0z" />
    <glyph glyph-name="colon" unicode=":" horiz-adv-x="250" 
d="M120 268v0q49 -1 82 27q33 27 34 92q-2 105 -114 112q-109 -4 -116 -112q4 -113 114 -119v0v0zM123 -20v0q111 -3 117 116q-4 110 -115 116q-110 -6 -116 -116q5 -109 114 -116v0v0z" />
    <glyph glyph-name="semicolon" unicode=";" horiz-adv-x="257" 
d="M130 266v0q111 0 117 117q-9 111 -114 117q-108 -8 -116 -116q1 -49 30 -82t83 -35v-1v0v0zM99 -150v0q63 52 106 110q42 58 44 128q0 51 -29 86q-30 35 -87 37q-57 -2 -87 -33q-30 -32 -30 -79q3 -71 56 -96q-16 -28 -67 -85q6 -2 94 -68v0v0z" />
    <glyph glyph-name="less" unicode="&#x3c;" horiz-adv-x="373" 
d="M358 76v0q0 181 3 189q-130 44 -195 69q84 31 135 49q52 18 54 18q0 195 4 195q-339 -168 -346 -168q0 -189 -3 -188q159 -73 252 -118q94 -45 96 -46v0v0z" />
    <glyph glyph-name="equal" unicode="=" horiz-adv-x="387" 
d="M375 360v0q0 -1 -1 35q-1 35 0 121q-5 -1 -111 -1q-106 -1 -247 1q0 2 0 -30q-1 -32 -3 -124h104q101 1 258 -2v0v0zM16 156v0q148 2 251 1t107 -1q0 160 1 156q-152 -3 -255 -3t-107 1q2 -95 3 -126q0 -31 0 -28v0v0z" />
    <glyph glyph-name="greater" unicode="&#x3e;" horiz-adv-x="374" 
d="M14 76v0q3 2 99 50t251 121q-4 -4 -2 182q-1 0 -91 42t-254 125q3 0 3 -195q2 0 57 -18q55 -17 137 -48q-60 -25 -201 -69q0 -1 1 -52q2 -50 0 -138v0v0z" />
    <glyph glyph-name="question" unicode="?" horiz-adv-x="594" 
d="M270 -20v0q132 5 136 117q0 119 -139 123q-63 -1 -101 -31q-39 -31 -40 -87q0 -53 35 -87t109 -35v0v0zM155 249v0q3 3 222 2v44q98 15 155 69q57 53 58 155q-1 98 -76 155q-76 56 -210 58q-292 1 -297 -271q103 0 165 -2q63 -1 64 -1q-4 103 61 110q53 -3 53 -71
q1 -54 -45 -73q-45 -19 -152 -12q-3 -6 0 -162l2 -1v0v0z" />
    <glyph glyph-name="at" unicode="@" horiz-adv-x="826" 
d="M457 191v0q-8 -82 -52 -74q-44 3 -44 42q-4 57 96 65v-33v0v0zM532 -151v0q-17 94 -18 96q-208 -47 -306 36q-99 82 -98 274q-1 330 310 337q160 -1 229 -85q70 -85 68 -250q0 -95 -10 -126q-10 -30 -27 -28q-29 -1 -26 62q1 30 1 75q1 45 -1 90q-4 89 -59 146
q-55 58 -168 60q-124 -1 -187 -59t-59 -156q86 5 138 5q52 1 53 0q5 67 39 64q34 2 37 -66q2 -20 1 -24q-152 3 -216 -38q-65 -40 -63 -116q-1 -63 43 -109q44 -47 142 -49q53 -1 101 15q48 17 78 58q32 -74 119 -76q78 -3 120 58t43 217q0 204 -99 313q-99 110 -299 111
q-198 -2 -303 -114q-106 -113 -106 -315q4 -257 148 -355t374 -49l1 -2v0v0z" />
    <glyph glyph-name="A" unicode="A" horiz-adv-x="620" 
d="M300 556v0l44 -296h-88q29 209 44 296v0v0zM0 17v0q92 1 157 0t68 -1l9 80q85 -1 134 -1q16 -113 15 -111q94 1 163 1q70 -1 74 -1q-42 200 -75 365q-33 166 -53 265q-19 100 -20 102q-4 1 -99 0q-96 0 -230 -5q-62 -312 -102 -500q-39 -189 -41 -194v0v0z" />
    <glyph glyph-name="B" unicode="B" horiz-adv-x="604" 
d="M247 570v0q16 1 29 2q85 -2 85 -74q0 -83 -114 -75q-2 -2 0 147v0v0zM251 138v0q-1 1 -3 146q131 6 125 -74q-4 -77 -91 -74q-15 0 -31 2v0v0zM38 1v0q123 -17 221 -18q163 -1 252 49q88 50 89 163q0 132 -135 174q109 36 114 158q5 203 -304 205q-104 0 -246 -24
q3 -191 5 -350q2 -160 3 -257t1 -100v0v0v0z" />
    <glyph glyph-name="C" unicode="C" horiz-adv-x="635" 
d="M325 -16v0q135 -2 218 72q84 75 89 244q-2 1 -68 3q-65 2 -176 2q-3 -84 -19 -116q-16 -31 -46 -30q-33 -1 -50 42t-17 154q-1 107 15 155q16 47 52 46q55 5 62 -130q-2 -2 242 5q-6 127 -78 210q-73 84 -221 87q-310 -3 -315 -373q2 -200 85 -287q84 -86 227 -84v0v0z
" />
    <glyph glyph-name="D" unicode="D" horiz-adv-x="628" 
d="M29 -3v0q98 -13 180 -13q202 -2 303 84q100 85 100 275q7 383 -384 381q-88 0 -198 -19v-201q1 -196 -1 -507v0v0zM254 156v0q0 3 -2 111q-2 107 -4 278q132 20 124 -195q0 -125 -29 -163q-30 -38 -89 -31v0v0z" />
    <glyph glyph-name="E" unicode="E" horiz-adv-x="507" 
d="M37 4v0q192 -3 318 -7q126 -3 131 -3q1 183 2 185q-235 6 -233 7q0 1 -3 78q193 0 190 -1q-3 175 -1 176q-110 -1 -152 -1q-43 0 -41 0q-1 2 0 82q107 3 173 4q65 1 67 1q-3 184 -2 191q-459 -6 -458 -7q5 -316 7 -509t1 -198l1 2v0v0z" />
    <glyph glyph-name="F" unicode="F" horiz-adv-x="492" 
d="M37 4v0q2 0 64 1h157l-4 187q180 1 185 0q-3 189 -1 196q-84 -2 -126 -2h-61q-1 122 0 122q97 2 161 2q65 1 67 1q-1 198 0 204q-191 -3 -318 -4q-128 -1 -132 -1q5 -316 7 -509q1 -192 1 -197v0v0z" />
    <glyph glyph-name="G" unicode="G" horiz-adv-x="647" 
d="M325 -20v0q146 -4 229 87q83 90 80 317q-127 1 -223 1q-95 1 -100 1q3 -160 1 -158l100 4q-17 -92 -73 -88q-43 -2 -65 45q-21 48 -22 164q0 112 19 158q18 47 55 45q56 3 63 -121q70 4 147 6q77 1 84 1q-9 133 -85 208q-75 76 -207 77q-305 1 -312 -373q3 -202 88 -289
t221 -85v0v0z" />
    <glyph glyph-name="H" unicode="H" horiz-adv-x="603" 
d="M352 -19v0q99 2 161 0q61 -1 63 -1q-2 322 -3 533v219q-101 -2 -162 -2q-62 1 -63 1l3 -347q-84 0 -103 1q-1 142 -2 226v86q-213 -2 -218 -1q4 -306 4 -490q1 -184 0 -188q93 2 156 1h65l-3 181q81 1 102 1v-220v0v0z" />
    <glyph glyph-name="I" unicode="I" horiz-adv-x="297" 
d="M40 0v0h162h62q-1 187 -2 348q-2 162 -2 261q-1 100 -1 103q-220 -2 -223 -1q4 -306 4 -505q1 -199 0 -206v0v0z" />
    <glyph glyph-name="J" unicode="J" horiz-adv-x="548" 
d="M262 -12v0q147 1 211 113q64 111 63 318q-1 155 -26 313l-220 -15q23 -162 23 -290q0 -152 -14 -202t-40 -46q-42 -3 -43 104q0 34 4 70q-209 17 -202 19q-14 -58 -13 -120q-2 -259 257 -264v0v0z" />
    <glyph glyph-name="K" unicode="K" horiz-adv-x="622" 
d="M376 -24v0q1 0 65 4t177 7q0 2 -40 107t-107 293q44 103 150 337q-4 -2 -242 8q1 1 -129 -341q-1 132 2 308q-1 0 -61 -1q-59 0 -162 2v-194v-493q4 2 224 1l-2 73l60 110q25 -76 65 -221v0v0z" />
    <glyph glyph-name="L" unicode="L" horiz-adv-x="471" 
d="M34 3v0h68q66 0 164 -1q99 0 200 -2q-2 8 1 192q-7 -1 -215 3q-4 306 -4 411t0 98q-222 -2 -220 0q3 -185 5 -344q1 -158 1 -256v-101v0v0z" />
    <glyph glyph-name="M" unicode="M" horiz-adv-x="837" 
d="M15 15v0q83 -1 154 -3q71 -1 75 -1q-4 139 -5 261t-1 209q30 -167 47 -272q16 -104 17 -107q90 -3 157 -3h69q14 107 32 215q17 107 32 192q5 -230 3 -376q-1 -146 -2 -150q86 2 155 5q68 3 72 3q-21 344 -28 537t-7 197q-124 4 -216 7t-96 3q-33 -248 -59 -404
q-27 159 -41 263q-14 103 -14 107q-124 -4 -217 -4q-93 1 -98 1q-8 -293 -18 -483q-10 -191 -11 -197v0v0z" />
    <glyph glyph-name="N" unicode="N" horiz-adv-x="626" 
d="M32 17v0q90 0 149 -1q60 -1 62 -1q-9 208 -11 304q74 -154 116 -244q41 -89 42 -91q93 5 149 11q56 5 57 5q-10 344 -14 535q-3 192 -3 195q-87 0 -146 1q-58 1 -61 1q18 -272 21 -377q-75 160 -115 250q-41 89 -41 91q-87 -3 -147 -5q-59 -3 -62 -3q4 -314 4 -490
t-1 -178l1 -3v0v0z" />
    <glyph glyph-name="O" unicode="O" horiz-adv-x="651" 
d="M326 144v0q-35 -2 -52 42q-18 45 -18 162q0 121 17 167q16 47 51 45q33 3 51 -41q17 -44 18 -167q-1 -126 -18 -169q-17 -42 -49 -39v0v0zM325 -20v0q142 -2 225 85t86 284q1 181 -74 279q-75 99 -239 100q-149 -2 -228 -102q-79 -99 -79 -278q5 -364 309 -368v0v0z" />
    <glyph glyph-name="P" unicode="P" horiz-adv-x="584" 
d="M248 535v0q11 1 22 1q87 -1 86 -112q-1 -128 -108 -116q-1 229 0 227v0v0zM28 4v0q86 2 155 1h72l-4 143q142 -4 232 64q90 67 93 214q-3 290 -363 286q-81 0 -181 -14q1 -324 -1 -508q-2 -183 -3 -186v0v0z" />
    <glyph glyph-name="Q" unicode="Q" horiz-adv-x="651" 
d="M326 140v0q-32 -2 -51 41q-19 44 -19 158q0 128 17 176q17 47 53 45q35 3 52 -44q18 -47 18 -178q0 -120 -18 -161q-19 -40 -52 -37v0v0zM431 -156v0q-5 -1 197 119q-5 3 -87 94q92 81 95 276q1 210 -77 301q-78 92 -237 90q-141 1 -224 -91q-84 -92 -85 -292
q2 -183 86 -272q84 -90 221 -89q23 0 45 3q24 -46 66 -139v0v0z" />
    <glyph glyph-name="R" unicode="R" horiz-adv-x="599" 
d="M246 362v0q0 2 -1 57q0 55 -2 138q17 3 30 3q96 -7 96 -102q-6 -108 -123 -96v0v0zM376 -20v0q106 11 167 16q62 6 63 6q-94 192 -127 265q109 53 113 201q-4 259 -340 264q-97 0 -220 -25q1 -325 -1 -509q-2 -183 -3 -187q86 2 152 2q67 -1 70 -1l-4 204q28 1 33 2
q47 -111 72 -174t25 -64v0v0z" />
    <glyph glyph-name="S" unicode="S" horiz-adv-x="602" 
d="M305 -18v0q133 0 212 54q78 55 80 166q3 90 -50 140q-52 51 -177 79q-121 26 -118 89q1 54 51 56q58 3 57 -101q98 -1 161 -4t65 -4q-8 269 -290 272q-126 0 -203 -52q-76 -51 -78 -157q0 -99 53 -153q53 -53 155 -80q80 -21 107 -40q27 -20 26 -47q-1 -57 -50 -55
q-66 6 -66 110q-224 -4 -232 -2q3 -262 298 -269l-1 -2v0v0z" />
    <glyph glyph-name="T" unicode="T" horiz-adv-x="525" 
d="M9 508v0l144 1q1 -239 1 -375q1 -136 1 -138q101 1 162 1h63q-5 340 -4 512q61 -1 101 -1h41q0 86 1 144t1 60q-117 -2 -234 -2q-117 -1 -196 0h-82q2 -199 1 -202v0v0z" />
    <glyph glyph-name="U" unicode="U" horiz-adv-x="605" 
d="M307 -16v0q289 -2 285 415q-1 160 -29 333q-222 -15 -224 -13q22 -169 22 -314q-1 -134 -16 -179q-16 -46 -46 -42q-30 -2 -46 55q-17 58 -17 193q0 107 19 245q-221 26 -217 28q-26 -153 -25 -290q-1 -223 72 -328q73 -104 222 -103v0v0z" />
    <glyph glyph-name="V" unicode="V" horiz-adv-x="597" 
d="M130 -15v0q132 -4 229 -4q96 -1 101 0q-1 -4 32 171q33 174 105 564q-1 -1 -63 -2q-63 -1 -171 1q0 -1 -17 -137q-17 -137 -52 -396q-12 78 -28 206q-17 129 -34 295q-2 0 -65 -1q-62 -2 -167 -1q2 -5 39 -193t91 -503v0v0z" />
    <glyph glyph-name="W" unicode="W" horiz-adv-x="844" 
d="M461 -28v0q-1 -3 321 10q0 -3 12 174q13 176 44 564q6 -2 -222 4q0 6 -2 -109t-12 -432q-23 154 -59 477q1 0 -53 1t-182 1q1 6 -11 -84q-13 -90 -49 -341q-4 86 -8 206q-4 119 -6 258q-4 0 -69 -1q-66 -1 -157 -2q12 -125 27 -298t30 -371q-3 0 66 -2q68 -2 241 -9
q-3 -2 50 419q16 -159 39 -465v0v0z" />
    <glyph glyph-name="X" unicode="X" horiz-adv-x="656" 
d="M266 12v0q1 2 16 61q16 59 45 155q26 -92 62 -244q-2 0 56 3q59 3 212 8q-2 -7 -146 362q36 108 129 368q1 -3 -254 7q2 -5 -63 -256q-59 228 -57 224l-247 -8q90 -253 122 -350q-39 -95 -141 -320q-3 1 266 -10v0v0z" />
    <glyph glyph-name="Y" unicode="Y" horiz-adv-x="623" 
d="M205 -12v0q125 1 175 1t48 0q-3 102 -3 131q1 29 1 25q92 271 145 421q52 151 54 154q-130 0 -184 2q-55 1 -53 2q-35 -150 -54 -234q-19 -83 -19 -85q-40 157 -54 227t-13 68q-140 -6 -194 -7t-52 -1q203 -556 199 -549q3 -76 4 -107v-48v0v0z" />
    <glyph glyph-name="Z" unicode="Z" horiz-adv-x="523" 
d="M504 -4v0q0 -2 0 40q-1 43 2 157h-67q-66 0 -176 2q81 110 239 319v55t-3 147q-8 -1 -476 -7q0 1 0 -46q1 -47 1 -160q1 0 62 2t169 4q-76 -105 -237 -318q1 5 -1 -188q4 2 487 -7v0v0v0z" />
    <glyph glyph-name="bracketleft" unicode="[" horiz-adv-x="349" 
d="M333 -136v0q3 172 5 176q-34 0 -57 1q-24 1 -25 1q-2 138 -2 266q0 129 1 212q1 84 1 87q29 2 52 2q22 1 24 1q-3 74 -3 119q-1 46 0 47q-141 -2 -218 -2h-78q7 -908 4 -907q119 0 205 -1q87 -2 91 -2v0v0z" />
    <glyph glyph-name="backslash" unicode="\" horiz-adv-x="445" 
d="M451 -124v0q-72 234 -131 434t-93 323q-35 123 -36 127q-193 -3 -196 0q142 -470 201 -679q60 -209 58 -205q89 2 142 1t55 -1v0v0z" />
    <glyph glyph-name="bracketright" unicode="]" horiz-adv-x="348" 
d="M15 -132v0q8 0 102 3q94 2 191 2q-4 2 4 909h-78t-217 2q1 -2 1 -48t-2 -119h24q23 0 52 -1q0 -3 1 -88t1 -215q0 -129 -2 -267q-7 -1 -83 -2q1 -4 6 -176v0v0z" />
    <glyph glyph-name="asciicircum" unicode="^" horiz-adv-x="483" 
d="M479 277v0q-142 427 -138 425q-204 -1 -198 2q-135 -426 -139 -425q175 -4 174 -7q41 194 64 275q29 -122 44 -193q16 -71 16 -72q97 0 138 -2q41 -3 39 -3v0v0z" />
    <glyph glyph-name="underscore" unicode="_" horiz-adv-x="411" 
d="M6 -140v0q3 0 66 1h154q91 0 181 -1q0 -2 0 32t3 132h-124t-281 3q1 1 1 -37q1 -39 0 -130v0v0z" />
    <glyph glyph-name="grave" unicode="`" horiz-adv-x="232" 
d="M316 540v0q96 67 97 64q-128 173 -121 168q-119 -85 -120 -84q83 -83 114 -117q31 -33 30 -31v0v0z" />
    <glyph glyph-name="a" unicode="a" horiz-adv-x="550" 
d="M265 116v0q-41 2 -41 42q-4 54 94 62v-8q0 -56 -14 -76q-14 -21 -39 -20v0v0zM188 -18v0q50 0 94 18q45 17 71 59q-5 -70 -6 -75q84 1 132 2h50q0 5 1 96q2 91 0 209q-2 113 -61 174q-58 62 -193 63q-115 -1 -180 -55q-64 -55 -69 -144q196 -4 203 -4q3 57 41 60
q35 3 38 -68v-16q-24 2 -46 2q-257 0 -255 -171q2 -70 51 -109q48 -39 129 -39v-2v0v0z" />
    <glyph glyph-name="b" unicode="b" horiz-adv-x="585" 
d="M289 125v0q-55 -1 -52 139q1 124 52 124q54 -3 52 -127q-1 -139 -52 -136v0v0zM27 -16v0q71 2 123 2t54 -1q-3 48 -3 85q39 -71 155 -75q93 0 153 67q61 66 63 195q0 123 -49 196t-146 74q-89 -2 -136 -69q6 236 8 241q-122 -2 -174 -1t-50 2q2 -367 1 -542
q0 -175 0 -174h1v0v0z" />
    <glyph glyph-name="c" unicode="c" horiz-adv-x="556" 
d="M289 -15v0q105 -1 178 54q72 55 84 179q-125 0 -179 2q-55 2 -53 2q-3 -89 -38 -83q-40 -3 -41 115q-1 129 41 129q42 -5 40 -93q5 0 77 2t151 0q0 103 -69 168q-69 66 -195 68q-133 -2 -201 -73t-68 -196q-2 -269 273 -275v1v0v0z" />
    <glyph glyph-name="d" unicode="d" horiz-adv-x="587" 
d="M299 125v0q-48 -4 -51 131q-1 135 50 132q53 -5 53 -127q-1 -82 -16 -110t-36 -26v0v0zM558 -21v0q-1 200 0 364q0 164 1 262t1 100q-133 -2 -181 -2q-47 1 -44 1q7 -164 8 -242q-43 61 -129 65q-99 -2 -149 -73q-50 -72 -50 -188q3 -140 62 -208t157 -68q98 -1 152 86
q-4 -91 -5 -95q61 -1 118 -2t61 -1l-2 1v0v0z" />
    <glyph glyph-name="e" unicode="e" horiz-adv-x="581" 
d="M293 396v0q48 -1 47 -93q-55 -3 -100 -3q5 102 53 96v0v0zM297 -15v0q101 0 173 46q71 45 99 138q-221 6 -228 7q-12 -58 -46 -55q-45 -4 -53 87q317 3 322 2q10 144 -53 230q-64 85 -223 88q-131 -2 -201 -74q-70 -71 -71 -191q-2 -123 61 -200q64 -77 220 -79v1v0v0z
" />
    <glyph glyph-name="f" unicode="f" horiz-adv-x="432" 
d="M416 290v0q-1 79 1 128q2 48 2 50l-112 1v7q1 24 15 38q15 14 57 14q19 0 48 -3q8 176 9 175q-78 16 -135 15q-121 -1 -167 -64q-47 -63 -46 -168v-8l-75 3q3 -193 2 -186h72q1 -122 3 -205q1 -84 1 -87q93 1 153 1h62q0 4 -1 90q-1 85 -1 201q110 -2 112 -2v0v0z" />
    <glyph glyph-name="g" unicode="g" horiz-adv-x="537" 
d="M350 -131v0q-6 -41 -68 -42q-64 0 -65 40q0 26 36 45q96 -3 97 -43v0v0zM272 199v0q-42 -4 -44 100q0 104 44 101q41 -2 41 -101q-1 -107 -41 -100v0v0zM263 -288v0q113 -1 199 45t90 145q1 83 -63 122q-65 38 -207 46q-62 5 -59 24q1 8 5 14q26 -3 54 -3q100 -2 172 49
q73 51 76 167q-3 131 -95 181q90 139 96 145q-203 68 -208 73q-15 -127 -24 -182q-7 1 -27 1q-115 0 -186 -53q-71 -54 -73 -162q4 -146 114 -191q-85 -35 -90 -103q3 -58 76 -90q-103 -21 -109 -98q2 -66 74 -98q71 -32 187 -32h-2v0v0z" />
    <glyph glyph-name="h" unicode="h" horiz-adv-x="557" 
d="M26 21v0q104 1 162 1h59v85q-1 80 1 184q-1 53 39 53q34 -1 34 -50q2 -112 1 -208q-1 -95 -1 -101h158q58 -1 59 -1q0 7 1 123q0 115 -3 246q-3 82 -43 130q-39 48 -112 49q-93 -4 -141 -73q0 104 1 170q1 65 1 67q-214 -2 -214 -1q3 -288 1 -477q-2 -190 -3 -197v0v0z
" />
    <glyph glyph-name="i" unicode="i" horiz-adv-x="275" 
d="M142 548v0q131 7 128 110q1 98 -128 105q-133 -3 -134 -104q0 -111 134 -111v0v0zM32 0v0q96 0 157 1h63q-2 130 -3 247q-1 116 -1 190v76q-215 -2 -219 -1q3 -279 3 -398q0 -118 0 -115v0v0z" />
    <glyph glyph-name="j" unicode="j" horiz-adv-x="275" 
d="M-93 -235v0q45 -5 84 -5q260 2 257 244q3 242 0 374q-3 131 -4 133q3 -3 -213 -1q0 -4 1 -85t1 -192q1 -110 -1 -203q4 -91 -87 -90q-15 0 -34 2q-1 -180 -4 -177v0v0zM140 548v0q125 2 129 111q-2 100 -130 105q-133 -6 -131 -107q-1 -45 29 -77q30 -31 103 -32v0v0z
" />
    <glyph glyph-name="k" unicode="k" horiz-adv-x="569" 
d="M334 -20v0q-1 0 53 3q55 2 181 5q-1 1 -35 86t-93 238q36 69 121 212q-8 -1 -249 9q-1 -7 -70 -213v162q1 89 2 212q5 -2 -219 2q1 4 2 -153q1 -156 -3 -524q7 3 219 -1q0 2 -1 62q15 26 41 68q20 -60 51 -168v0v0z" />
    <glyph glyph-name="l" unicode="l" horiz-adv-x="273" 
d="M247 12v0q0 -8 -1 143q-1 150 2 545q3 -2 -219 4q0 5 1 -153t-1 -537q7 1 218 -2v0v0z" />
    <glyph glyph-name="m" unicode="m" horiz-adv-x="848" 
d="M28 15v0q93 1 155 0h64q0 6 -2 89q-1 83 1 174q0 58 39 63q34 -2 35 -54q3 -92 0 -174t-3 -88q93 1 156 1h65q0 6 -1 82t1 160q3 58 39 60q31 -2 32 -51q3 -108 3 -197v-95h158q58 -1 59 -1q0 7 1 119q1 111 -2 234q-1 70 -35 121t-118 53q-109 -4 -160 -81
q-28 92 -148 98q-117 -7 -172 -103q1 74 2 82q-75 -1 -123 0t-50 1q3 -218 3 -353v-139l1 -1v0v0z" />
    <glyph glyph-name="n" unicode="n" horiz-adv-x="556" 
d="M319 -16v0q7 0 86 1h133v75v156q-1 85 -2 129q-10 179 -165 182q-57 0 -104 -30t-70 -76q-1 31 0 55t1 26q-64 -2 -116 -2q-51 1 -54 1q1 -220 0 -351t-2 -134q80 1 148 1q69 -1 73 -1v54q-1 52 0 115q0 63 1 102q1 53 38 53q35 -1 35 -50q1 -118 -1 -210q-1 -91 -1 -96
v0v0z" />
    <glyph glyph-name="o" unicode="o" horiz-adv-x="585" 
d="M294 123v0q-29 -1 -42 30q-12 30 -12 114q0 71 14 98q13 28 39 27q26 1 39 -28t13 -103q-1 -85 -14 -112q-13 -28 -37 -26v0v0zM291 -12v0q122 -2 200 61t81 211q0 126 -72 196q-72 71 -209 72q-129 -1 -203 -68q-74 -66 -75 -192q2 -276 278 -280v0v0z" />
    <glyph glyph-name="p" unicode="p" horiz-adv-x="592" 
d="M296 127v0q-26 -1 -39 29q-12 29 -12 106q0 131 51 126q52 2 49 -126q0 -80 -13 -108q-12 -28 -36 -27v0v0zM25 -208v0q5 0 77 1q72 2 149 0q0 -2 -3 58t-8 204q44 -62 132 -63q90 0 146 67t58 198q0 113 -54 190q-54 78 -157 81q-113 -6 -156 -95q0 22 2 76q-6 0 -71 -1
t-115 0q0 -3 1 -106v-266q1 -162 -1 -344v0v0z" />
    <glyph glyph-name="q" unicode="q" horiz-adv-x="592" 
d="M295 124v0q-52 -3 -51 136q-3 122 53 125q50 -4 50 -126q-1 -141 -51 -135h-1v0v0zM340 -218v0q0 1 225 1q0 4 -1 202q-2 197 1 543q2 0 -39 -1q-42 -1 -150 1q0 -5 3 -86q-46 83 -154 91q-92 -2 -151 -73t-61 -196q1 -138 57 -207q55 -69 147 -69q94 2 132 68l-9 -274v0
v0z" />
    <glyph glyph-name="r" unicode="r" horiz-adv-x="406" 
d="M27 -2v0q220 2 219 1q0 5 -1 64q-1 58 0 107q0 84 31 118q32 33 122 33q4 206 6 208q-147 5 -204 -106q1 80 2 87q-184 -2 -178 -1q2 -125 2 -242q1 -117 0 -193v-78l1 2v0v0z" />
    <glyph glyph-name="s" unicode="s" horiz-adv-x="516" 
d="M270 -24v0q107 0 174 42t69 130q3 58 -39 96q-42 39 -155 60q-101 19 -93 53q0 27 37 30q46 -7 49 -64q193 6 198 3q-2 93 -67 150q-65 58 -190 59q-110 -1 -175 -46q-64 -45 -65 -123q1 -75 53 -110q51 -36 136 -50q60 -10 82 -22q22 -11 20 -27q-1 -30 -41 -30
q-52 2 -53 61q-215 4 -209 3q7 -109 77 -160q71 -51 191 -51l1 -4v0v0z" />
    <glyph glyph-name="t" unicode="t" horiz-adv-x="427" 
d="M416 14v0q-1 5 -13 183q-28 -5 -49 -5q-64 -2 -66 60q-2 48 -2 101l120 -2q0 -3 -1 31q0 34 2 138h-121q1 58 2 94q1 37 1 38q-7 -2 -215 -1q0 -7 -2 -129q-32 0 -67 1q0 2 1 -35t1 -136q4 -1 64 1q0 -73 1 -147q10 -217 195 -210q65 0 149 18v0v0z" />
    <glyph glyph-name="u" unicode="u" horiz-adv-x="556" 
d="M208 -4v0q97 1 148 87q-1 -89 -1 -97q183 2 177 0q-3 249 -3 392q1 144 1 147q-123 0 -172 1q-50 2 -48 2q1 -4 4 -91t-1 -208q-5 -61 -36 -58q-23 -3 -34 38q-11 40 -11 155q-1 65 6 141q-114 7 -160 11t-45 5q-13 -107 -13 -214q-1 -163 43 -238q43 -76 145 -75v2v0v0z
" />
    <glyph glyph-name="v" unicode="v" horiz-adv-x="540" 
d="M426 5v0q0 -2 27 124q28 126 87 401q5 -3 -218 6q1 4 -9 -81q-10 -84 -45 -304q-1 -2 -11 79q-11 81 -31 271q-1 0 -61 -3q-59 -3 -165 -5q-1 0 120 -489q7 1 306 1v0v0z" />
    <glyph glyph-name="w" unicode="w" horiz-adv-x="795" 
d="M437 -8v0q3 2 279 2q-4 0 79 539q3 -3 -217 3q0 2 -3 -81q-4 -82 -14 -282q1 -5 -15 64q-15 69 -52 278h-200q0 -1 -15 -87t-43 -246q-1 -1 -7 76t-14 247q-1 0 -60 -2t-155 -1q4 -4 76 -486q-2 0 62 0q64 -1 218 -3q-4 -3 37 276q1 -1 14 -79q12 -78 30 -218v0v0z" />
    <glyph glyph-name="x" unicode="x" horiz-adv-x="598" 
d="M0 9v0q-7 3 245 0q0 5 53 151q26 -67 65 -176q-2 4 235 3q-4 2 -131 274q23 58 121 264q5 -3 -229 7l-61 -180q-20 53 -49 152q-5 -3 -236 -2q5 -5 113 -242q-30 -62 -126 -251v0v0z" />
    <glyph glyph-name="y" unicode="y" horiz-adv-x="559" 
d="M365 -240v0q-1 -3 15 64q16 66 58 234q42 167 121 467q-3 -1 -228 11q2 -7 -46 -344q-5 6 -49 313q-4 -5 -236 -11q2 -3 51 -150t128 -403q2 0 -35 -151q-3 0 46 -6t175 -24v0v0z" />
    <glyph glyph-name="z" unicode="z" horiz-adv-x="482" 
d="M466 0v0q0 -2 0 37q-1 38 2 139q-4 -3 -196 -3q-2 -1 42 46q45 48 150 151q-2 -7 -2 151q1 -1 -105 -4t-336 -3q0 1 2 -40t2 -142q-1 1 41 4t143 5q8 2 -192 -195q2 3 -2 -138q-5 0 95 0q99 -1 356 -8v0v0z" />
    <glyph glyph-name="braceleft" unicode="{" horiz-adv-x="392" 
d="M378 -130v0q-2 -6 -1 167q-47 -5 -63 8t-15 53l3 104q6 95 -79 125q86 26 83 112q-3 63 -6 117q-6 60 75 49q0 -1 -2 36q-3 37 -2 127q-59 15 -121 16q-166 2 -166 -144q4 -80 7 -148q6 -82 -85 -71q1 -81 0 -133t-2 -54q96 9 88 -94l-3 -118q-6 -174 162 -170
q61 0 127 18v0v0z" />
    <glyph glyph-name="bar" unicode="|" horiz-adv-x="284" 
d="M48 -128v0q192 5 192 2q-1 388 1 632q2 243 2 251q-200 0 -198 3q2 -221 3 -422v-332v-134v0v0z" />
    <glyph glyph-name="braceright" unicode="}" horiz-adv-x="391" 
d="M13 -134v0q67 -17 126 -18q172 -2 165 159l-7 147q-5 97 90 86q0 1 -1 51q-1 49 -1 129q-50 -3 -69 14q-18 17 -17 60q4 66 8 145q2 70 -38 107t-138 38q-55 -1 -110 -14q-2 -174 -4 -166q81 10 75 -51q-3 -52 -6 -112q0 -98 90 -116q-88 -23 -87 -120q3 -68 6 -123
q6 -68 -81 -55q2 -88 1 -125t-2 -36v0v0z" />
    <glyph glyph-name="asciitilde" unicode="~" horiz-adv-x="451" 
d="M116 516v0q-3 64 34 61q32 -5 71 -34q38 -30 97 -34q131 2 126 203q-110 6 -108 7q-2 -64 -33 -60q-33 5 -71 35q-37 31 -93 35q-64 0 -101 -50t-31 -154l109 -9v0v0z" />
    <glyph glyph-name="exclamdown" unicode="&#xa1;" horiz-adv-x="585" 
d="M144 380v0q68 1 102 33q35 33 35 85q-5 117 -139 122q-56 -1 -94 -32q-37 -31 -39 -87q0 -51 34 -85q34 -35 101 -36v0v0zM22 -102v0q95 1 169 0q74 -2 79 -2q-17 210 -24 330q-6 119 -6 121q-85 -2 -138 -2h-56q-21 -448 -24 -447v0v0z" />
    <glyph glyph-name="cent" unicode="&#xa2;" horiz-adv-x="560" 
d="M186 -44v0q1 0 55 1t148 -1q-1 5 -6 105q158 38 169 256q-227 2 -228 4q-2 -115 -41 -108q-25 -2 -36 31q-12 34 -12 128q-2 138 46 140q42 -4 42 -111q-1 2 227 3q2 187 -167 246q4 41 11 116q-1 1 -59 0t-150 0q0 -2 3 -33t5 -76q-184 -46 -182 -296q8 -254 184 -300
q-1 -36 -7 -105h-2v0v0z" />
    <glyph glyph-name="sterling" unicode="&#xa3;" horiz-adv-x="624" 
d="M19 247v0h62q-15 -48 -60 -76q0 -68 -1 -117q-1 -50 -1 -52q268 1 424 -3q156 -3 159 -3q0 203 3 198q-251 -6 -330 -3q22 23 33 53q94 -1 207 -4q-3 2 -2 155q-6 -1 -218 -4q-17 39 -19 92q3 78 53 77q59 -2 51 -130q228 4 232 4q9 131 -62 215q-71 83 -226 86
q-137 -1 -210 -60t-74 -160q4 -68 28 -122l-48 1q3 -3 1 -149l-2 2v0v0z" />
    <glyph glyph-name="yen" unicode="&#xa5;" 
d="M45 210v0l160 4q1 -18 1 -34q-161 -1 -165 0q0 -123 -1 -121l168 3q0 -73 -1 -78q221 3 219 1l-3 80q158 1 160 1q-2 126 -1 120q-86 -3 -160 -4q1 27 1 36q153 1 156 1q-1 127 1 126l-99 -3q138 380 141 375q-233 -1 -234 3q-28 -136 -50 -225t-24 -92q-76 298 -71 293
q-135 -6 -190 -6q-55 -1 -53 -1q106 -254 144 -353h-103q6 -129 4 -126v0v0z" />
    <glyph glyph-name="section" unicode="&#xa7;" 
d="M241 273v0q0 24 30 43q93 -11 90 -62q0 -20 -19 -38q-106 13 -101 57v0v0zM314 -192v0q132 2 205 61q73 60 74 155q-2 100 -85 141q81 41 87 128q2 66 -49 102q-52 35 -175 49q-125 13 -124 70q1 46 50 49q58 0 58 -80q-4 1 46 1t174 -8q-12 250 -286 255
q-127 -1 -199 -56t-73 -149q-2 -108 92 -164q-96 -29 -102 -118q0 -74 54 -110t163 -47q81 -10 109 -27q29 -17 27 -43q-2 -44 -52 -45q-63 4 -66 83q-2 -4 -235 5q9 -125 89 -189q80 -63 217 -63h1v0v0z" />
    <glyph glyph-name="dieresis" unicode="&#xa8;" horiz-adv-x="251" 
d="M398 563v0q77 0 84 83q-1 75 -84 83q-84 -6 -86 -80q5 -82 84 -86h2v0v0zM192 560v0q34 -1 60 19q25 20 27 66q-1 77 -86 83q-82 -5 -88 -82q-1 -35 21 -60q21 -25 66 -26v0v0z" />
    <glyph glyph-name="copyright" unicode="&#xa9;" horiz-adv-x="176" 
d="M356 40v0q-274 0 -272 312q-6 302 286 308q146 -1 209 -82t61 -225q-4 -197 -89 -258q-86 -61 -195 -55v0v0zM350 -20v0q148 -6 251 72t107 303q0 173 -83 270q-84 97 -252 98q-355 -5 -357 -364q3 -383 334 -379v0v0zM360 99v0q76 -3 143 41q66 44 69 173q-2 0 -49 -1
q-48 -2 -122 -1q1 -52 -9 -72q-10 -19 -30 -18q-23 -2 -34 24q-12 26 -12 104q0 75 11 103q11 29 36 28q39 4 41 -81h52q50 0 116 -3q4 91 -49 146q-52 56 -154 58q-105 0 -166 -60t-62 -191q0 -134 56 -192q56 -59 164 -57l-1 -1v0v0z" />
    <glyph glyph-name="ordfeminine" unicode="&#xaa;" horiz-adv-x="439" 
d="M215 413v0q-29 0 -31 39q-4 42 66 52v-28q-3 -69 -35 -63v0v0zM149 318v0q98 0 134 68q-3 -53 -4 -56q138 0 141 1q1 4 3 70t-3 148q-5 79 -51 126t-144 48q-184 -2 -204 -143q74 0 121 -3t48 -4q5 45 31 45q25 1 24 -45v-13q-238 7 -240 -123q1 -59 40 -89
q40 -30 104 -30v0v0v0z" />
    <glyph glyph-name="guillemotleft" unicode="&#xab;" horiz-adv-x="585" 
d="M279 138v0q143 4 145 2q-92 200 -91 202q37 81 63 132q26 52 27 53q-143 4 -144 5q-86 -182 -89 -183q89 -205 89 -211v0v0zM91 136v0q148 9 145 7q-88 198 -86 202q41 88 70 144q29 57 30 59q-150 2 -147 4q-94 -194 -101 -201q42 -98 66 -156q23 -58 23 -59v0v0z" />
    <glyph glyph-name="registered" unicode="&#xae;" 
d="M202 501v0q-1 -3 -1 81q33 2 32 -41q0 -43 -31 -40v0v0zM240 360v0q88 16 93 16q-31 74 -37 93q38 24 40 78q-2 104 -138 105q-37 0 -86 -9q-1 -270 -3 -277q96 1 95 0q-2 64 -2 80q3 0 15 1q23 -86 23 -87v0v0zM219 319v0q-94 0 -129 46q-36 46 -34 136q-2 188 153 187
q91 0 130 -51q39 -50 38 -143q-5 -182 -158 -175v0v0zM218 272v0q203 -3 210 226q2 98 -46 166q-49 68 -171 71q-108 -1 -157 -64q-50 -63 -49 -167q-7 -228 213 -232v0v0z" />
    <glyph glyph-name="macron" unicode="&#xaf;" horiz-adv-x="305" 
d="M144 576v0q163 2 232 2t67 0q1 123 2 118q-169 -2 -238 -2q-68 0 -65 0q3 -123 2 -118v0v0z" />
    <glyph glyph-name="degree" unicode="&#xb0;" horiz-adv-x="290" 
d="M169 492v0q-63 5 -65 78q2 73 64 78q64 -3 64 -78q-3 -79 -63 -78v0v0zM170 408v0q78 1 120 46t42 119q0 148 -166 155q-80 -2 -121 -45t-41 -110q2 -83 50 -124t116 -41v0v0z" />
    <glyph glyph-name="uni00B2" unicode="&#xb2;" horiz-adv-x="388" 
d="M370 320v0v124q-2 0 -51 -3q-48 -3 -120 -6q81 23 131 68t51 107q-6 130 -179 135q-204 -1 -194 -192q66 1 108 0h43q-8 92 37 88q27 1 28 -38q-1 -46 -58 -82t-155 -58q0 -2 1 -43q2 -40 5 -96h96t256 -4h1v0v0z" />
    <glyph glyph-name="uni00B3" unicode="&#xb3;" horiz-adv-x="415" 
d="M210 305v0q84 0 140 33q55 33 57 97q-3 73 -82 96q69 16 75 90q-8 120 -188 125q-96 1 -151 -38t-52 -122q3 1 49 1t109 1q-2 58 42 56q35 1 39 -34q-1 -27 -31 -34q-38 -10 -93 -6q4 -86 4 -88q24 2 51 1t44 -6q28 -9 27 -35q-3 -35 -42 -34q-43 0 -44 56q-70 2 -114 5
q-43 2 -45 2q-11 -166 206 -167l-1 1v0v0z" />
    <glyph glyph-name="acute" unicode="&#xb4;" horiz-adv-x="432" 
d="M271 540v0q-2 -2 29 32q30 33 113 117q-1 -1 -121 83q8 5 -119 -168q1 3 98 -64v0v0z" />
    <glyph glyph-name="paragraph" unicode="&#xb6;" horiz-adv-x="561" 
d="M365 541v0q-1 -129 -3 -291t-3 -283t-2 -127q231 -1 223 -4q-8 412 -8 640q-1 227 0 230q-93 14 -170 14q-391 -1 -395 -345q3 -159 84 -245q82 -86 215 -94q0 362 3 498q26 5 56 7v0v0z" />
    <glyph glyph-name="periodcentered" unicode="&#xb7;" horiz-adv-x="829" 
d="M123 252v0q111 -2 117 115q-4 111 -114 117q-111 -6 -117 -117q4 -109 114 -115v0v0z" />
    <glyph glyph-name="cedilla" unicode="&#xb8;" 
d="M229 9v0q-8 -49 -14 -81t-7 -33q91 4 87 -23q-2 -22 -41 -23q-42 1 -85 20q-9 -74 -11 -80q53 -17 104 -18q163 6 165 102q1 77 -118 83q1 48 2 53h-82v0v0z" />
    <glyph glyph-name="uni00B9" unicode="&#xb9;" horiz-adv-x="298" 
d="M105 319v0q1 1 46 1q44 1 109 1q0 5 -2 124q-1 118 -2 282q-1 0 -32 2t-70 7q-1 -1 -44 -22q-42 -20 -108 -50q4 -8 41 -128q5 3 62 27q1 -53 -1 -244h1v0v0z" />
    <glyph glyph-name="ordmasculine" unicode="&#xba;" horiz-adv-x="769" 
d="M224 420v0q-38 -8 -36 106q-1 95 35 94q35 3 34 -99q0 -108 -33 -101v0v0zM222 312v0q93 -1 153 48q59 50 61 161q-1 198 -212 203q-98 -1 -156 -52t-59 -145q1 -213 213 -215v0v0z" />
    <glyph glyph-name="guillemotright" unicode="&#xbb;" horiz-adv-x="585" 
d="M342 141v0q42 88 68 139q27 51 27 53q-87 200 -88 208q-146 -6 -147 -3q89 -194 88 -199q-92 -193 -94 -193q154 -3 146 -5v0v0zM152 140v0q41 86 68 137q27 52 28 53q-91 210 -89 214q-146 -9 -143 -6q41 -89 65 -144q23 -56 24 -57q-92 -190 -96 -191q140 -5 143 -6v0
v0z" />
    <glyph glyph-name="onequarter" unicode="&#xbc;" horiz-adv-x="438" 
d="M581 172v0q20 42 84 155v-155h-84v0v0zM104 319v0q2 0 47 1h109q0 6 -2 125q-1 118 -2 282q-1 0 -32 2t-70 7q-1 -1 -44 -22q-42 -20 -108 -50q4 -8 41 -128q5 2 62 26q1 -51 -1 -243v0v0zM222 -16v0q-6 -8 96 148q102 157 382 571q-6 -1 -122 10q-1 -3 -122 -191
q-122 -189 -353 -526l119 -12v0v0zM663 -4v0q0 -1 147 1q-1 1 -1 69h36q0 107 1 107q-1 0 -14 -1h-24q0 90 1 239q-5 -3 -233 5q0 -2 -137 -241q3 -120 3 -112l222 3l-1 -70v0v0z" />
    <glyph glyph-name="onehalf" unicode="&#xbd;" horiz-adv-x="438" 
d="M104 318v0h47q44 1 109 1q0 5 -2 124q-1 119 -2 283q-1 0 -32 3q-31 2 -70 7q-1 -1 -44 -22q-42 -20 -108 -51q0 -1 12 -36t29 -93q5 3 62 27q1 -52 -1 -243v0v0zM222 -16v0q-6 -8 96 148q103 156 382 571q-5 -1 -121 10q-1 -3 -123 -192q-121 -189 -353 -525l119 -12v0
v0zM846 -3v0v124q-2 -1 -50 -4q-49 -3 -121 -6q81 24 131 68q50 45 51 107q-6 130 -179 136q-204 -1 -193 -193q65 1 107 1q42 -1 43 -1q-6 94 38 89q27 1 29 -38q-2 -46 -59 -82t-154 -59q0 -2 1 -42q1 -41 4 -96h96q94 -1 256 -4v0v0z" />
    <glyph glyph-name="threequarters" unicode="&#xbe;" horiz-adv-x="614" 
d="M658 172v0q20 41 83 153v-153h-83v0v0zM300 -16v0q-5 -8 96 148q102 157 380 571q-6 -1 -122 11q0 -4 -121 -193q-122 -189 -355 -525l122 -12v0v0zM739 -4v0q0 -1 147 1q-1 1 -1 69h36q0 107 1 107q-1 0 -14 -1h-24q0 89 1 237q-5 -2 -233 5q0 -2 -135 -239
q3 -120 3 -112l220 3l-1 -70v0v0zM210 305v0q84 0 140 33q55 33 57 97q-3 73 -82 96q69 16 75 90q-8 120 -188 125q-96 1 -151 -38t-52 -122q3 1 49 1t109 1q-2 58 42 56q35 1 39 -34q-1 -27 -31 -34q-38 -10 -93 -6q4 -86 4 -88q24 2 51 1t44 -6q28 -9 27 -35
q-3 -34 -42 -34q-43 0 -44 56q-70 2 -114 4q-43 3 -45 3q-11 -166 206 -167l-1 1v0v0z" />
    <glyph glyph-name="questiondown" unicode="&#xbf;" 
d="M327 380v0q62 0 100 31q39 31 40 87q0 53 -35 87q-34 34 -109 35q-132 -5 -137 -118q0 -118 140 -122h1v0v0zM292 -128v0q291 -2 297 270q-103 0 -165 2q-63 1 -64 1q4 -102 -61 -109q-53 3 -53 70q-1 54 45 73q45 18 152 11q-2 8 -3 164q-3 -4 -224 -2v-44
q-95 -14 -152 -68q-56 -53 -58 -155q1 -98 77 -155t210 -58h-1v0v0z" />
    <glyph glyph-name="Agrave" unicode="&#xc0;" horiz-adv-x="585" 
d="M293 752v0q96 67 97 64q-128 173 -120 168q-119 -85 -120 -84q83 -83 114 -116t29 -32v0v0zM300 557v0l44 -297h-88q29 210 44 297v0v0zM0 17v0q92 1 157 0t68 -1l9 80q85 -1 134 -1q16 -113 15 -111q94 1 163 1q70 -1 74 -1q-42 200 -75 366t-53 266q-19 100 -20 102
q-4 1 -99 0q-96 0 -230 -5q-62 -313 -102 -502q-39 -189 -41 -194v0v0z" />
    <glyph glyph-name="Aacute" unicode="&#xc1;" 
d="M325 753v0q-2 -1 29 32q30 33 113 116q-1 -1 -121 83q8 5 -118 -167q0 3 97 -64v0v0zM300 557v0l44 -297h-88q29 210 44 297v0v0zM0 17v0q92 1 157 0t68 -1l9 80q85 -1 134 -1q16 -113 15 -111q94 1 163 1q70 -1 74 -1q-42 200 -75 366t-53 266q-19 100 -20 103h-99
q-96 -1 -230 -5q-62 -314 -102 -503q-39 -189 -41 -194v0v0z" />
    <glyph glyph-name="Acircumflex" unicode="&#xc2;" 
d="M190 747v0q109 91 109 87q116 -86 113 -86q77 89 77 86q-136 113 -129 110q-131 -10 -124 -7q-121 -114 -124 -112q81 -79 78 -78v0v0zM300 556v0l44 -296h-88q29 209 44 296v0v0zM0 17v0q92 1 157 0t68 -1l9 80q85 -1 134 -1q16 -113 15 -111q94 1 163 1q70 -1 74 -1
q-42 200 -75 365q-33 166 -53 266q-19 100 -20 102h-99q-96 -1 -230 -5q-62 -313 -102 -501q-39 -189 -41 -194v0v0z" />
    <glyph glyph-name="Atilde" unicode="&#xc3;" 
d="M222 770v0q-3 40 30 43q27 -4 55 -24q27 -21 78 -23q117 4 93 174q-97 -8 -97 -7q4 -53 -27 -49q-28 6 -55 29q-28 23 -71 26q-61 -2 -88 -50t-22 -122q108 5 104 4v-1v0v0zM300 558v0l44 -296h-88q29 209 44 296v0v0zM0 16v0q92 1 157 0t68 -1l9 81q85 -1 134 -1
q16 -114 15 -113q94 2 163 1q70 0 74 -1q-42 202 -75 368t-53 266q-19 100 -20 103q-4 0 -99 -1q-96 0 -230 -5q-62 -312 -102 -502q-39 -190 -41 -195v0v0z" />
    <glyph glyph-name="Adieresis" unicode="&#xc4;" 
d="M405 774v0q77 0 84 83q0 76 -83 84q-84 -6 -86 -80q5 -82 84 -86l1 -1v0v0zM199 771v0q34 -1 60 19q26 19 27 66q-1 77 -86 83q-82 -5 -88 -82q0 -35 21 -60t66 -26v0v0zM300 558v0l44 -296h-88q29 209 44 296v0v0zM0 16v0q92 1 157 0t68 -1l9 81q85 -1 134 -1
q16 -114 15 -113q94 2 163 1q70 0 74 -1q-42 202 -75 368t-53 266q-19 100 -20 103q-4 0 -99 -1q-96 0 -230 -5q-62 -312 -102 -502q-39 -190 -41 -195v0v0z" />
    <glyph glyph-name="Aring" unicode="&#xc5;" 
d="M305 823v0q-39 4 -41 46q0 42 41 47q38 -5 39 -47q-1 -43 -39 -46v0v0zM302 760v0q51 -1 88 25q37 25 38 84q0 45 -33 75q-32 30 -92 31q-54 0 -90 -27q-35 -27 -36 -79q0 -46 31 -77q32 -31 94 -32v0v0zM303 556v0l43 -296h-87q29 209 44 296v0v0zM2 17v0q92 1 157 0
t67 -1l10 80q86 -1 134 -1q15 -113 15 -111q93 1 162 1q70 -1 74 -1q-42 200 -75 365q-33 166 -53 266q-19 99 -20 102h-99q-95 -1 -230 -5q-62 -313 -102 -501q-39 -189 -40 -194v0v0z" />
    <glyph glyph-name="AE" unicode="&#xc6;" horiz-adv-x="686" 
d="M332 567v0q20 -174 33 -307q-55 0 -94 1q44 231 61 306v0v0zM778 265v0q-2 79 -1 127v48q-159 -2 -207 -2q-1 83 0 86q101 2 171 2q69 -1 72 -1q-3 89 -2 141v53q0 -5 -651 -6q-67 -320 -113 -506q-45 -186 -47 -190q98 1 161 0t66 -1l14 82q89 0 139 -1l8 -111
q415 11 421 9q0 183 2 185q-225 -5 -230 -2l-5 86q92 1 146 0q55 -1 56 -1v2v0v0z" />
    <glyph glyph-name="Ccedilla" unicode="&#xc7;" 
d="M630 300v0q-2 0 -67 2q-66 3 -177 3q-3 -85 -18 -117q-16 -31 -45 -30q-33 -1 -49 42q-17 44 -17 154q-1 108 15 155q16 48 51 47q54 5 60 -130q-1 -2 242 5q-6 127 -78 211t-219 87q-308 -3 -313 -375q1 -186 73 -273q73 -87 198 -96q-15 -87 -17 -94q91 2 87 -25
q-2 -22 -42 -22q-42 0 -86 19q-9 -72 -11 -78q53 -17 106 -17q164 5 166 99q-2 78 -120 84q-1 3 0 33q116 9 187 84q70 75 75 231l-1 1v0v0z" />
    <glyph glyph-name="Egrave" unicode="&#xc8;" horiz-adv-x="662" 
d="M250 750v0q97 66 98 63q-128 172 -121 167q-119 -85 -119 -83q82 -83 113 -116t29 -31v0v0zM37 4v0q192 -3 318 -7q126 -3 131 -3q1 183 2 185q-235 6 -233 7q0 1 -3 78q193 0 190 -1q-3 175 -1 176q-110 -1 -152 -1q-43 0 -41 0q-1 2 0 82q107 3 173 4q65 1 67 1
q-3 184 -2 191q-459 -6 -458 -7q5 -316 7 -509t1 -198l1 2v0v0z" />
    <glyph glyph-name="Eacute" unicode="&#xc9;" 
d="M37 4v0q192 -3 318 -7q126 -3 131 -3q1 183 2 185q-235 6 -233 7q0 1 -3 78q193 0 190 -1q-3 175 -1 176q-110 -1 -152 -1q-43 0 -41 0q-1 2 0 82q107 3 173 4q65 1 67 1q-3 184 -2 191q-459 -6 -458 -7q5 -316 7 -509t1 -198l1 2v0v0zM284 750v0q-2 -1 29 32
q30 33 113 116q-1 -1 -121 82q8 5 -118 -166q0 3 97 -64v0v0z" />
    <glyph glyph-name="Ecircumflex" unicode="&#xca;" 
d="M37 4v0q192 -3 318 -7q126 -3 131 -3q1 183 2 185q-235 6 -233 7q0 1 -3 78q193 0 190 -1q-3 175 -1 176q-110 -1 -152 -1q-43 0 -41 0q-1 2 0 82q107 3 173 4q65 1 67 1q-3 184 -2 191q-459 -6 -458 -7q5 -316 7 -509t1 -198l1 2v0v0zM150 746v0q109 91 109 87
q117 -86 113 -86q77 89 77 86q-136 113 -129 110q-131 -10 -124 -7q-121 -114 -124 -112q81 -79 78 -78v0v0z" />
    <glyph glyph-name="Edieresis" unicode="&#xcb;" horiz-adv-x="477" 
d="M37 4v0q192 -3 318 -7q126 -3 131 -3q1 183 2 185q-234 6 -231 7q0 1 -2 78q190 0 187 -1q-3 175 -1 176q-109 -1 -151 -1q-41 0 -39 0q-1 2 0 82q105 3 170 4t67 1q-3 184 -2 191q-457 -6 -457 -7q5 -316 6 -509q2 -193 2 -198v2v0v0zM366 772v0q77 0 84 83
q-1 74 -84 82q-84 -6 -86 -80q5 -82 84 -86l2 1v0v0zM160 769v0q34 -1 60 19q26 19 27 66q-1 77 -86 83q-82 -5 -88 -82q0 -35 21 -60t66 -26v0v0z" />
    <glyph glyph-name="Igrave" unicode="&#xcc;" 
d="M142 749v0q96 67 97 64q-127 172 -120 167q-119 -85 -120 -83q83 -83 114 -116t29 -32v0v0zM40 0v0h162h62q-1 188 -2 349q-2 161 -2 261q-1 100 -1 102q-220 -1 -223 -1q4 -305 4 -505q1 -199 0 -206v0v0z" />
    <glyph glyph-name="Iacute" unicode="&#xcd;" horiz-adv-x="880" 
d="M175 747v0q-2 -1 28 31q31 33 113 116q-1 -1 -120 82q7 5 -118 -166q0 3 97 -63v0v0zM40 0v0h162h62q-1 187 -2 348q-2 161 -2 260q-1 99 -1 102q-220 -1 -223 -1q4 -305 4 -503q1 -199 0 -206v0v0z" />
    <glyph glyph-name="Icircumflex" unicode="&#xce;" horiz-adv-x="442" 
d="M40 744v0q109 91 109 86q116 -85 112 -85q77 88 77 85q-136 113 -129 110q-129 -10 -123 -7q-121 -114 -123 -112q81 -78 77 -77v0v0zM40 0v0h162h62q-1 187 -2 348q-2 161 -2 260q-1 100 -1 103q-220 -1 -223 -1q4 -305 4 -504q1 -199 0 -206v0v0z" />
    <glyph glyph-name="Idieresis" unicode="&#xcf;" 
d="M254 771v0q77 0 84 83q-1 75 -84 83q-84 -6 -86 -80q5 -82 84 -86h2v0v0zM47 767v0q36 0 62 20t27 66q-1 77 -85 83q-82 -5 -88 -82q-1 -35 20 -60t66 -26l-2 -1v0v0zM38 -1v0h163h62q-1 187 -2 349q-1 161 -2 261q-1 99 -1 102q-221 -1 -224 -1q4 -305 4 -505v-206v0v0z
" />
    <glyph glyph-name="Eth" unicode="&#xd0;" horiz-adv-x="662" 
d="M287 151v0q0 4 -3 112h46q-4 180 -1 176h-47q-1 52 -1 110q131 17 127 -201q1 -117 -29 -160q-29 -43 -92 -37v0v0zM4 255v0l60 2l-1 -260q98 -12 179 -13q204 -1 305 84q101 86 101 276q7 382 -388 380q-87 0 -196 -19v-261q-57 2 -58 3q0 -192 -2 -192v0v0z" />
    <glyph glyph-name="Ntilde" unicode="&#xd1;" 
d="M235 779v0q-4 40 29 43q26 -2 53 -22q28 -19 79 -22q116 5 93 170q-97 -8 -97 -6q4 -50 -28 -46q-27 3 -55 25q-29 23 -72 26q-61 -2 -87 -50q-27 -48 -22 -122q106 5 103 4h4v0v0zM32 17v0q90 0 149 -1q60 -1 62 -1q-9 207 -11 304q74 -154 115 -244q42 -89 42 -91
q94 5 150 11q56 5 57 5q-10 343 -14 535q-3 191 -3 194q-87 0 -146 1t-61 1q18 -272 20 -376q-73 159 -112 249q-40 90 -40 91q-88 -2 -148 -5q-61 -3 -63 -3q4 -313 3 -489v-178v-3v0v0z" />
    <glyph glyph-name="Ograve" unicode="&#xd2;" horiz-adv-x="898" 
d="M315 749v0q95 67 96 64q-127 172 -119 167q-118 -85 -119 -83q82 -83 113 -116q30 -33 29 -32v0v0zM326 144v0q-35 -2 -52 42q-18 45 -18 162q0 121 17 167q16 47 51 45q33 3 51 -41q17 -44 18 -167q-1 -126 -18 -169q-17 -42 -49 -39v0v0zM325 -20v0q142 -2 225 85
t86 284q1 181 -74 279q-75 99 -239 100q-149 -2 -228 -102q-79 -99 -79 -278q5 -364 309 -368v0v0z" />
    <glyph glyph-name="Oacute" unicode="&#xd3;" 
d="M326 144v0q-35 -2 -52 42q-18 45 -18 162q0 121 17 167q16 47 51 45q33 3 51 -41q17 -44 18 -167q-1 -126 -18 -169q-17 -42 -49 -39v0v0zM325 -20v0q142 -2 225 85t86 284q1 181 -74 279q-75 99 -239 100q-149 -2 -228 -102q-79 -99 -79 -278q5 -364 309 -368v0v0z
M348 749v0q-2 -1 29 31q30 33 113 115q-1 -2 -121 81q8 5 -117 -164q0 3 96 -63v0v0z" />
    <glyph glyph-name="Ocircumflex" unicode="&#xd4;" 
d="M326 144v0q-35 -2 -52 42q-18 45 -18 162q0 121 17 167q16 47 51 45q33 3 51 -41q17 -44 18 -167q-1 -126 -18 -169q-17 -42 -49 -39v0v0zM325 -20v0q142 -2 225 85t86 284q1 181 -74 279q-75 99 -239 100q-149 -2 -228 -102q-79 -99 -79 -278q5 -364 309 -368v0v0z
M215 744v0q108 91 108 87q115 -86 112 -86q77 89 77 86q-136 112 -129 109q-129 -10 -123 -7q-120 -113 -123 -111q81 -79 78 -78v0v0z" />
    <glyph glyph-name="Otilde" unicode="&#xd5;" horiz-adv-x="585" 
d="M247 766v0q-4 40 30 43q26 -4 53 -24q27 -19 78 -22q117 4 93 173q-98 -8 -97 -7q4 -53 -28 -49q-26 6 -54 29q-27 23 -70 26q-60 -2 -87 -50q-26 -48 -22 -122q107 5 104 4v-1v0v0zM327 146v0q-35 -2 -53 42t-18 160q0 120 17 166t52 44q34 3 52 -40q17 -44 17 -166
q0 -124 -17 -167q-18 -42 -50 -39v0v0zM326 -20v0q143 -1 225 86q83 87 86 283q1 179 -74 278q-75 98 -239 100q-150 -2 -230 -102q-80 -99 -79 -277q4 -362 311 -368v0v0z" />
    <glyph glyph-name="Odieresis" unicode="&#xd6;" 
d="M326 144v0q-35 -2 -52 42q-18 45 -18 162q0 121 17 167q16 47 51 45q34 3 52 -41q17 -44 17 -167q0 -126 -17 -169q-18 -42 -50 -39v0v0zM326 -20v0q142 -2 225 85q82 87 85 284q1 181 -74 279q-75 99 -239 100q-149 -2 -228 -102q-79 -99 -79 -278q5 -364 309 -368h1v0
v0zM429 770v0q78 0 84 83q0 76 -83 84q-84 -6 -86 -80q5 -82 84 -86l1 -1v0v0zM223 767v0q35 -1 61 19q25 19 27 66q-1 77 -86 83q-82 -5 -89 -82q0 -35 21 -60t66 -26v0v0z" />
    <glyph glyph-name="multiply" unicode="&#xd7;" horiz-adv-x="464" 
d="M229 227v0l115 -119q-5 -4 112 111q-7 7 -119 116l116 114q-103 97 -107 104q-104 -108 -112 -115q-3 3 -114 118q1 0 -23 -25q-25 -25 -88 -84q8 -8 117 -116q-108 -106 -114 -112q107 -103 106 -106q53 56 111 114v0v0z" />
    <glyph glyph-name="Oslash" unicode="&#xd8;" horiz-adv-x="691" 
d="M325 140v0q-69 -8 -69 208q0 113 16 161t53 47q68 6 68 -198q0 -126 -17 -173q-16 -48 -51 -45v0v0zM211 -136v0q30 76 48 114q30 -6 65 -6q158 1 235 100q77 98 77 281q0 189 -79 277q77 104 81 106q-190 86 -194 92q-27 -79 -42 -115q-36 7 -78 7q-147 0 -227 -92
t-81 -278q1 -193 92 -291q-76 -106 -77 -104q172 -84 180 -91v0v0z" />
    <glyph glyph-name="Ugrave" unicode="&#xd9;" 
d="M293 741v0q98 66 98 63q-129 173 -122 168q-120 -85 -120 -83q83 -84 114 -117q32 -33 30 -31v0v0zM307 -16v0q289 -1 285 414q-1 160 -29 333q-222 -15 -224 -13q22 -169 22 -314q-1 -133 -16 -178q-16 -46 -46 -42q-30 -2 -46 55q-17 58 -17 193q0 106 19 244
q-221 26 -217 28q-26 -153 -25 -290q-1 -222 72 -327q73 -104 222 -103v0v0z" />
    <glyph glyph-name="Uacute" unicode="&#xda;" 
d="M307 -16v0q289 -2 285 414q-1 161 -29 333q-222 -14 -224 -12q22 -170 22 -315q-1 -133 -16 -178q-16 -46 -46 -42q-30 -2 -46 55q-17 58 -17 193q0 106 19 245q-221 26 -217 28q-26 -153 -25 -290q-1 -223 72 -328q73 -104 222 -103v0v0zM326 746v0q-1 -2 30 31
q30 33 114 117q-2 -2 -122 82q8 5 -120 -167q0 3 98 -63v0v0z" />
    <glyph glyph-name="Ucircumflex" unicode="&#xdb;" 
d="M307 -16v0q289 -1 285 414q-1 160 -29 332q-222 -15 -224 -13q22 -169 22 -313q-1 -133 -16 -178q-16 -46 -46 -42q-30 -2 -46 55q-17 57 -17 193q0 105 19 243q-221 27 -217 28q-26 -152 -25 -289q-1 -222 72 -327q73 -104 222 -103v0v0zM190 743v0q110 91 110 87
q118 -86 114 -86q77 89 77 86q-136 113 -129 110q-133 -10 -126 -7q-121 -114 -124 -112q81 -79 78 -78v0v0z" />
    <glyph glyph-name="Udieresis" unicode="&#xdc;" 
d="M308 -16v0q289 -1 285 414q-1 160 -29 333q-222 -15 -223 -13q21 -169 21 -314q0 -133 -16 -178q-15 -46 -45 -42q-31 -2 -48 55q-17 58 -17 193q0 106 19 244q-221 26 -217 28q-26 -153 -25 -290q-1 -222 72 -327q73 -104 223 -103v0v0v0zM407 770v0q77 0 84 83
q3 76 -81 84q-84 -6 -86 -80q5 -82 84 -86l-1 -1v0v0zM201 767v0q34 -1 60 19q26 19 27 66q-1 77 -86 83q-82 -5 -88 -82q0 -35 21 -60t66 -26v0v0z" />
    <glyph glyph-name="Yacute" unicode="&#xdd;" horiz-adv-x="623" 
d="M333 735v0q-2 -2 29 31q30 33 113 116q-1 -1 -121 82q8 5 -119 -166q1 3 98 -63v0v0zM205 -12v0q125 1 175 1t48 0q-3 102 -3 131q1 29 1 25q92 270 145 421q52 151 54 153q-130 1 -184 2q-55 2 -53 2q-35 -150 -54 -233q-19 -84 -19 -85q-40 157 -54 227q-14 69 -13 68
q-140 -6 -194 -7q-54 -2 -52 -1q203 -556 199 -549q3 -76 4 -107v-48v0v0z" />
    <glyph glyph-name="Thorn" unicode="&#xde;" horiz-adv-x="593" 
d="M246 480v0q65 3 90 -30q25 -32 24 -100q0 -69 -28 -96t-84 -26q-2 142 -2 252v0v0zM28 0v0q102 3 163 2q62 -1 63 -1l-3 83q152 -2 242 66q89 67 91 212q2 132 -79 204q-80 72 -259 70q0 29 1 52v25q-97 1 -155 4q-58 2 -60 3q2 -326 -1 -521q-2 -194 -3 -199v0v0z" />
    <glyph glyph-name="germandbls" unicode="&#xdf;" horiz-adv-x="600" 
d="M32 16v0q-1 -3 220 -4q-19 276 0 457q5 86 57 87q43 1 44 -69q-1 -71 -67 -72q2 -85 2 -119q-1 -34 -1 -33q63 -2 64 -67q-1 -63 -59 -64q-3 -154 -4 -146q26 -2 50 -2q110 -2 175 44t67 154q1 116 -111 162q101 41 109 163q-2 96 -70 152q-69 55 -186 57
q-269 -1 -285 -254q-18 -216 -5 -446v0v0z" />
    <glyph glyph-name="agrave" unicode="&#xe0;" 
d="M268 547v0q97 67 98 64q-129 174 -122 169q-119 -86 -120 -84q83 -84 114 -117q32 -33 30 -32v0v0zM265 116v0q-41 2 -41 42q-4 54 94 62v-8q0 -56 -14 -76q-14 -21 -39 -20v0v0zM188 -18v0q50 0 94 18q45 17 71 59q-5 -70 -6 -75q84 1 132 2h50q0 5 1 96q2 91 0 209
q-2 113 -61 174q-58 62 -193 63q-115 -1 -180 -55q-64 -55 -69 -144q196 -4 203 -4q3 57 41 60q35 3 38 -68v-16q-24 2 -46 2q-257 0 -255 -171q2 -70 51 -109q48 -39 129 -39v-2v0v0z" />
    <glyph glyph-name="aacute" unicode="&#xe1;" 
d="M300 547v0q-1 -2 29 31q31 33 114 116q-1 -1 -121 82q8 5 -120 -166q0 3 98 -63v0v0zM265 116v0q-41 2 -41 42q-4 54 94 62v-8q0 -56 -14 -76q-14 -21 -39 -20v0v0zM188 -18v0q50 0 94 18q45 17 71 59q-5 -70 -6 -75q84 1 132 2h50q0 5 1 96q2 91 0 209q-2 113 -61 174
q-58 62 -193 63q-115 -1 -180 -55q-64 -55 -69 -144q196 -4 203 -4q3 57 41 60q35 3 38 -68v-16q-24 2 -46 2q-257 0 -255 -171q2 -70 51 -109q48 -39 129 -39v-2v0v0z" />
    <glyph glyph-name="acircumflex" unicode="&#xe2;" 
d="M166 543v0q110 91 110 87q118 -86 114 -86q77 89 77 86q-137 113 -130 110q-132 -10 -125 -7q-120 -114 -123 -112q80 -79 77 -78v0v0zM265 116v0q-41 2 -41 42q-4 54 94 62v-8q0 -56 -14 -76q-14 -21 -39 -20v0v0zM188 -18v0q50 0 94 18q45 17 71 59q-5 -70 -6 -75
q84 1 132 2h50q0 5 1 96q2 91 0 209q-2 113 -61 174q-58 62 -193 63q-115 -1 -180 -55q-64 -55 -69 -144q196 -4 203 -4q3 57 41 60q35 3 38 -68v-16q-24 2 -46 2q-257 0 -255 -171q2 -70 51 -109q48 -39 129 -39v-2v0v0z" />
    <glyph glyph-name="atilde" unicode="&#xe3;" 
d="M199 567v0q-4 40 29 43q28 -5 56 -25q28 -21 79 -24q117 5 94 175q-98 -8 -98 -7q4 -53 -28 -49q-27 6 -55 29t-72 26q-60 -2 -87 -50t-22 -122q107 5 104 4v0v0zM265 116v0q-41 2 -41 42q-4 54 94 62v-8q0 -56 -14 -76q-14 -21 -39 -20v0v0zM188 -18v0q50 0 94 18
q45 17 71 59q-5 -70 -6 -75q84 1 132 2h50q0 5 1 96q2 91 0 209q-2 113 -61 174q-58 62 -193 63q-115 -1 -180 -55q-64 -55 -69 -144q196 -4 203 -4q3 57 41 60q35 3 38 -68v-16q-24 2 -46 2q-257 0 -255 -171q2 -70 51 -109q48 -39 129 -39v-2v0v0z" />
    <glyph glyph-name="adieresis" unicode="&#xe4;" 
d="M381 567v0q77 0 83 83q2 75 -81 83q-83 -6 -85 -80q4 -82 83 -86v0v0zM177 564v0q33 -1 59 19q25 19 27 66q-1 77 -87 83q-81 -5 -87 -82q0 -35 20 -60q21 -25 66 -26h2v0v0zM266 116v0q-40 2 -40 42q-3 54 91 62v-8q1 -56 -13 -76q-14 -21 -38 -20v0v0zM188 -18v0
q50 0 94 18q45 17 71 59q-5 -70 -6 -75q84 1 132 2h50q0 5 1 96q2 91 0 209q-2 113 -61 174q-58 62 -193 63q-115 -1 -180 -55q-64 -55 -69 -144q196 -4 203 -4q5 57 42 60q34 3 37 -68v-16q-23 2 -45 2q-257 0 -255 -171q1 -70 51 -109q49 -39 129 -39l-1 -2v0v0z" />
    <glyph glyph-name="aring" unicode="&#xe5;" 
d="M279 619v0q-39 4 -41 44q-1 41 41 45q40 -5 40 -45q-1 -41 -40 -44v0v0zM276 556v0q53 -1 90 24q38 25 39 83q0 44 -33 73q-33 30 -95 31q-54 0 -89 -27q-35 -26 -36 -77q0 -45 31 -75q31 -31 93 -32v0v0v0zM265 116v0q-41 2 -41 42q-4 54 94 62v-8q0 -56 -14 -76
q-14 -21 -39 -20v0v0zM188 -18v0q50 0 94 18q45 17 71 59q-5 -70 -6 -75q84 1 132 2h50q0 5 1 96q2 91 0 209q-2 113 -61 174q-58 62 -193 63q-115 -1 -180 -55q-64 -55 -69 -144q196 -4 203 -4q3 57 41 60q35 3 38 -68v-16q-24 2 -46 2q-257 0 -255 -171q2 -70 51 -109
q48 -39 129 -39v-2v0v0z" />
    <glyph glyph-name="ae" unicode="&#xe6;" 
d="M319 208v0q0 -53 -15 -73q-15 -19 -39 -18q-41 2 -41 41q0 57 95 58v-8v0v0zM612 396v0q48 0 48 -96l-100 -2q3 103 52 98v0v0zM620 -20v0q212 3 266 184q-88 3 -155 6q-67 2 -71 2q-11 -53 -46 -51q-43 -5 -53 87q318 5 323 3q25 310 -265 317q-120 -3 -180 -61
q-55 61 -170 62q-111 -2 -174 -56q-62 -54 -68 -144q200 -4 202 -5q2 63 41 64t39 -72v-18q-27 2 -51 1q-259 -4 -252 -155q1 -77 56 -119q55 -41 152 -41q133 -2 197 75q33 -39 89 -58q57 -18 121 -18l-1 -3v0v0z" />
    <glyph glyph-name="ccedilla" unicode="&#xe7;" 
d="M551 218v0q-125 0 -179 2q-55 2 -53 2q-3 -87 -38 -81q-42 -2 -42 115q-1 128 42 128q42 -5 40 -93q5 0 77 1q72 2 150 0q0 103 -69 168q-69 66 -194 68q-133 -2 -201 -73t-68 -196q-2 -245 228 -272q-14 -89 -17 -95q89 3 85 -25q-2 -23 -40 -23q-41 0 -84 20
q-9 -74 -11 -79q53 -17 103 -17q161 5 164 100q-1 78 -120 85q0 20 1 34q91 8 153 63q62 54 73 167v1v0v0z" />
    <glyph glyph-name="egrave" unicode="&#xe8;" 
d="M283 551v0q95 67 96 64q-127 174 -120 169q-118 -86 -119 -84q83 -84 114 -118q30 -33 29 -31v0v0zM293 396v0q48 -1 47 -93q-55 -3 -100 -3q5 102 53 96v0v0zM297 -15v0q101 0 173 46q71 45 99 138q-221 6 -228 7q-12 -58 -46 -55q-45 -4 -53 87q317 3 322 2
q10 144 -53 230q-64 85 -223 88q-131 -2 -201 -74q-70 -71 -71 -191q-2 -123 61 -200q64 -77 220 -79v1v0v0z" />
    <glyph glyph-name="eacute" unicode="&#xe9;" 
d="M293 396v0q48 -1 47 -93q-55 -3 -100 -3q5 102 53 96v0v0zM297 -15v0q101 0 173 46q71 45 99 138q-221 6 -228 7q-12 -58 -46 -55q-45 -4 -53 87q317 3 322 2q10 144 -53 230q-64 85 -223 88q-131 -2 -201 -74q-70 -71 -71 -191q-2 -123 61 -200q64 -77 220 -79v1v0v0z
M315 552v0q-2 -2 29 31q30 33 113 116q-1 -1 -121 82q8 5 -119 -166q1 3 98 -63v0v0z" />
    <glyph glyph-name="ecircumflex" unicode="&#xea;" 
d="M293 396v0q48 -1 47 -93q-55 -3 -100 -3q5 102 53 96v0v0zM297 -15v0q101 0 173 46q71 45 99 138q-221 6 -228 7q-12 -58 -46 -55q-45 -4 -53 87q317 3 322 2q10 144 -53 230q-64 85 -223 88q-131 -2 -201 -74q-70 -71 -71 -191q-2 -123 61 -200q64 -77 220 -79v1v0v0z
M180 545v0q110 91 110 87q116 -86 113 -86q76 89 76 86q-135 112 -129 109q-130 -10 -123 -7q-122 -113 -124 -112q81 -79 77 -77v0v0z" />
    <glyph glyph-name="edieresis" unicode="&#xeb;" 
d="M294 396v0q49 -1 48 -93q-56 -3 -102 -3q5 102 54 96v0v0zM297 -16v0q102 0 173 45q72 45 99 139q-220 6 -227 7q-11 -56 -46 -54q-46 -4 -54 87q320 3 325 2q10 144 -54 230q-63 85 -224 88q-132 -2 -202 -74q-70 -71 -71 -191q-2 -123 61 -200q64 -77 221 -79h-1v0v0z
M396 564v0q77 0 83 83q3 74 -81 82q-84 -6 -86 -80q5 -82 84 -86v1v0v0zM190 561v0q34 -1 60 19q25 20 27 66q-1 77 -86 83q-82 -5 -88 -82q-1 -35 21 -60q21 -25 66 -26v0v0z" />
    <glyph glyph-name="igrave" unicode="&#xec;" 
d="M132 553v0q96 66 97 63q-128 173 -121 168q-120 -85 -120 -83q83 -84 114 -117q31 -32 30 -31v0v0zM32 0v0q96 0 157 1h63q-2 130 -3 247t-1 191v76q-215 -2 -219 -1q3 -279 3 -398t0 -116v0v0z" />
    <glyph glyph-name="iacute" unicode="&#xed;" 
d="M32 0v0q96 0 157 1h63q-2 131 -3 247q-1 117 -1 191v77q-215 -2 -219 -1q3 -280 3 -399t0 -116v0v0zM164 554v0q-1 -2 29 31q31 33 114 117q-1 -2 -121 82q7 5 -119 -167q0 3 97 -63v0v0z" />
    <glyph glyph-name="icircumflex" unicode="&#xee;" 
d="M32 0v0q96 0 157 1h63q-2 130 -3 246q-1 117 -1 190v76q-215 -2 -219 -1q3 -278 3 -397q0 -118 0 -115v0v0zM30 547v0q109 91 110 87q117 -86 113 -86q77 89 77 86q-136 113 -130 110q-130 -10 -124 -7q-121 -114 -124 -112q81 -79 78 -78v0v0z" />
    <glyph glyph-name="idieresis" unicode="&#xef;" 
d="M29 0v0q97 0 158 1h63q-2 130 -2 247q-1 116 -2 190v76q-216 -2 -220 -1q3 -279 3 -398q0 -118 0 -115v0v0zM244 574v0q77 0 84 83q2 76 -82 84q-84 -6 -86 -80q5 -82 84 -86v-1v0v0zM38 571v0q34 0 60 19q26 20 27 66q-1 77 -86 83q-82 -5 -88 -82q0 -35 21 -60t66 -26
v0v0z" />
    <glyph glyph-name="eth" unicode="&#xf0;" horiz-adv-x="582" 
d="M299 120v0q-55 -3 -55 135q0 125 54 125q26 -4 39 -44q12 -41 12 -79q-1 -76 -14 -107q-14 -31 -36 -30v0v0zM291 -20v0q131 0 205 76q75 77 76 232q-1 128 -44 231q66 44 67 44q-116 145 -118 151l-42 -46q-32 36 -71 64l-132 -118q74 -63 103 -146q-42 57 -117 60
q-93 -2 -147 -70t-55 -187q1 -137 71 -213q70 -77 204 -78v0v0z" />
    <glyph glyph-name="ntilde" unicode="&#xf1;" 
d="M211 563v0q-3 40 30 43q28 -2 55 -23q28 -20 79 -23q117 6 94 172q-98 -8 -98 -6q4 -50 -28 -46q-27 3 -55 25q-27 23 -70 26q-61 -2 -88 -50t-22 -122q108 5 104 4h-1v0v0zM318 -19v0q7 0 85 1t133 0v77v157q-1 86 -2 131q-10 179 -164 182q-57 0 -104 -30t-70 -76
q-1 30 0 55q1 24 1 26q-65 -3 -116 -2q-51 0 -54 1q1 -222 0 -354q-2 -132 -2 -135q80 1 148 1q69 -1 73 -1v55q-1 52 -1 116q1 64 2 104q1 53 38 53q35 -2 35 -50q1 -121 -1 -213q-1 -93 -1 -98v0v0z" />
    <glyph glyph-name="ograve" unicode="&#xf2;" 
d="M283 547v0q99 67 99 64q-130 174 -123 169q-120 -85 -120 -84q83 -84 114 -117q32 -33 30 -32v0v0zM294 123v0q-29 -1 -42 30q-12 30 -12 114q0 71 14 98q13 28 39 27q26 1 39 -28t13 -103q-1 -85 -14 -112q-13 -28 -37 -26v0v0zM291 -12v0q122 -2 200 61t81 211
q0 126 -72 196q-72 71 -209 72q-129 -1 -203 -68q-74 -66 -75 -192q2 -276 278 -280v0v0z" />
    <glyph glyph-name="oacute" unicode="&#xf3;" 
d="M294 123v0q-29 -1 -42 30q-12 30 -12 114q0 71 14 98q13 28 39 27q26 1 39 -28t13 -103q-1 -85 -14 -112q-13 -28 -37 -26v0v0zM291 -12v0q122 -2 200 61t81 211q0 126 -72 196q-72 71 -209 72q-129 -1 -203 -68q-74 -66 -75 -192q2 -276 278 -280v0v0zM316 547v0
q-2 -1 29 32q31 34 114 118q-1 -2 -121 83q8 5 -122 -168q0 3 100 -65v0v0z" />
    <glyph glyph-name="ocircumflex" unicode="&#xf4;" 
d="M294 123v0q-29 -1 -42 30q-12 30 -12 114q0 71 14 98q13 28 39 27q26 1 39 -28t13 -103q-1 -85 -14 -112q-13 -28 -37 -26v0v0zM291 -12v0q122 -2 200 61t81 211q0 126 -72 196q-72 71 -209 72q-129 -1 -203 -68q-74 -66 -75 -192q2 -276 278 -280v0v0zM181 544v0
q110 93 111 89q118 -88 114 -88q77 91 77 88q-136 114 -129 111q-134 -10 -127 -8q-121 -115 -124 -113q81 -80 78 -79v0v0z" />
    <glyph glyph-name="otilde" unicode="&#xf5;" 
d="M215 566v0q-3 40 30 43q27 -1 55 -22q27 -21 79 -24q117 7 94 173q-98 -8 -98 -6q4 -50 -27 -46q-28 3 -57 25q-28 23 -73 26q-60 -2 -87 -50t-22 -122q107 5 104 4l2 -1v0v0zM294 125v0q-28 -2 -40 29q-12 30 -12 114q0 70 13 98q13 27 38 26q25 1 38 -27
q12 -29 12 -103q0 -85 -13 -112q-13 -28 -36 -25v0v0zM291 -10v0q121 -2 199 61t81 210q0 125 -72 196t-208 72q-127 -1 -201 -68t-75 -192q3 -276 276 -279v0v0z" />
    <glyph glyph-name="odieresis" unicode="&#xf6;" 
d="M293 123v0q-29 -1 -41 30q-12 30 -12 114q0 71 13 98q14 28 39 27q25 1 38 -28q12 -29 12 -103q0 -85 -13 -112q-13 -28 -36 -26v0v0zM291 -12v0q120 -2 198 61t80 211q0 126 -72 196q-71 71 -207 72q-128 -1 -202 -68q-74 -66 -75 -192q3 -276 277 -280h1v0v0zM398 570
v0q77 0 84 83q-1 76 -84 84q-84 -6 -86 -80q5 -82 84 -86l2 -1v0v0zM192 567v0q34 -1 60 19q25 20 27 66q-1 77 -86 83q-82 -5 -88 -82q-1 -35 21 -60q21 -25 66 -26v0v0z" />
    <glyph glyph-name="divide" unicode="&#xf7;" 
d="M202 223v0q-87 1 -92 -92q3 -83 91 -87q88 3 92 87q-1 92 -91 92v0v0zM200 624v0q-89 1 -92 -90q5 -87 90 -90q88 3 94 90q-2 83 -92 90v0v0zM12 416v0q1 -7 1 -168q2 0 101 1t277 -1q-2 5 3 166q-6 -1 -118 -1q-113 -1 -264 3v0v0z" />
    <glyph glyph-name="oslash" unicode="&#xf8;" horiz-adv-x="594" 
d="M300 128v0q-54 -7 -52 136q0 74 12 103q13 30 39 29q25 1 37 -28q12 -30 12 -110q1 -74 -10 -103q-11 -28 -38 -27v0v0zM298 -8v0q131 1 204 70q73 70 74 197q1 130 -75 204q62 85 65 86q-77 37 -125 61q-49 25 -50 26q-27 -75 -41 -107q-23 3 -48 3q-276 -1 -281 -265
q-2 -138 79 -213q-60 -80 -62 -81q77 -38 124 -63t48 -26q28 76 43 110q21 -2 45 -2v0v0z" />
    <glyph glyph-name="ugrave" unicode="&#xf9;" 
d="M265 549v0q96 66 97 64q-128 172 -121 167q-118 -85 -119 -83q83 -84 114 -117q31 -32 29 -31v0v0zM208 -4v0q97 1 148 87q-1 -89 -1 -97q183 2 177 0q-3 249 -3 392q1 143 1 146q-123 0 -172 1q-50 2 -48 2q1 -4 4 -91t-1 -207q-5 -62 -36 -59q-23 -2 -34 38t-11 155
q-1 64 6 141q-114 6 -160 11q-46 4 -45 4q-13 -106 -13 -213q-1 -162 43 -238q43 -75 145 -74v2v0v0z" />
    <glyph glyph-name="uacute" unicode="&#xfa;" 
d="M208 -4v0q97 1 148 87q-1 -89 -1 -97q183 2 177 0q-3 249 -3 392q1 144 1 146q-123 1 -172 2q-50 1 -48 2q1 -5 4 -92t-1 -207q-5 -61 -36 -58q-23 -3 -34 37q-11 41 -11 156q-1 64 6 140q-114 7 -160 11q-46 5 -45 5q-13 -107 -13 -214q-1 -162 43 -238q43 -75 145 -74
v2v0v0zM298 550v0q-1 -2 29 31q31 33 114 116q-2 -1 -121 82q7 5 -119 -166q0 3 97 -63v0v0z" />
    <glyph glyph-name="ucircumflex" unicode="&#xfb;" 
d="M208 -4v0q97 1 148 87q-1 -89 -1 -97q183 2 177 0q-3 249 -3 393q1 143 1 146q-123 0 -172 2q-50 1 -48 1q1 -4 4 -91t-1 -208q-5 -61 -36 -58q-23 -3 -34 38q-11 40 -11 155q-1 65 6 141q-114 7 -160 11t-45 5q-13 -107 -13 -214q-1 -163 43 -238q43 -76 145 -75v2v0v0z
M164 546v0q109 91 110 87q116 -86 112 -86q77 89 77 86q-136 112 -129 109q-130 -10 -124 -7q-121 -113 -124 -112q81 -78 78 -77v0v0z" />
    <glyph glyph-name="udieresis" unicode="&#xfc;" 
d="M207 -4v0q99 1 150 87q-1 -89 -1 -96q181 1 175 -1q-3 249 -3 391q0 143 1 146q-122 0 -171 2q-49 1 -47 1q0 -4 3 -91t-1 -207q-4 -60 -35 -57q-23 -3 -35 37q-11 40 -11 156q-1 64 6 140q-114 7 -160 11t-45 5q-13 -107 -13 -214q-1 -162 43 -238q43 -75 145 -74l-1 2
v0v0zM379 571v0q77 0 84 83q3 75 -81 83q-84 -6 -86 -80q5 -82 84 -86h-1v0v0zM173 568v0q35 0 60 19q26 20 27 66q0 77 -86 83q-81 -5 -88 -82q0 -35 21 -60t66 -26v0v0z" />
    <glyph glyph-name="yacute" unicode="&#xfd;" horiz-adv-x="559" 
d="M303 550v0q-1 -1 29 31q31 33 114 117q-2 -2 -121 82q7 5 -119 -166q0 2 97 -64v0v0zM365 -240v0q-1 -3 15 64q16 66 58 234q42 167 121 467q-3 -2 -228 11q2 -7 -46 -344q-5 5 -49 313q-4 -5 -236 -12q2 -2 51 -149t128 -403q2 0 -35 -151q-3 0 46 -6t175 -24v0v0z" />
    <glyph glyph-name="thorn" unicode="&#xfe;" horiz-adv-x="592" 
d="M296 127v0q-26 -1 -39 29q-12 29 -12 106q0 131 51 126q52 2 49 -126q0 -80 -13 -108q-12 -28 -36 -27v0v0zM25 -208v0q5 0 77 1q72 2 149 0q0 -2 -3 58t-8 204q44 -62 132 -63q90 0 146 67t58 198q0 116 -49 192t-148 79q-96 -3 -141 -79v115q1 68 5 132q-2 0 -43 -1
t-92 -1t-83 1q0 -5 1 -138v-338q1 -205 -1 -427v0v0z" />
    <glyph glyph-name="ydieresis" unicode="&#xff;" 
d="M384 570v0q78 0 84 83q1 76 -82 84q-84 -6 -86 -80q5 -82 84 -86v-1v0v0zM180 568v0q35 -1 61 19q26 19 27 65q-1 77 -87 83q-82 -5 -88 -82q-1 -35 21 -60q21 -24 66 -26v1v0v0zM365 -239v0q-1 -2 15 64t58 233q42 168 121 467q-3 -2 -228 10q2 -6 -46 -343
q-5 6 -49 313q-1 -5 -235 -11q2 -3 51 -150q50 -147 129 -403q2 0 -36 -151q-2 0 47 -6q48 -6 173 -24v1v0v0z" />
    <glyph glyph-name="circumflex" unicode="&#x2c6;" 
d="M183 536v0q109 92 109 88q116 -87 113 -87q77 90 77 87q-136 115 -129 112q-131 -10 -124 -8q-121 -115 -124 -113q81 -80 78 -79v0v0z" />
    <glyph glyph-name="tilde" unicode="&#x2dc;" 
d="M215 559v0q-3 40 30 43q27 -2 55 -22q27 -20 78 -23q117 6 93 171q-98 -8 -97 -6q4 -50 -28 -46q-27 3 -55 25q-27 23 -71 26q-60 -2 -87 -50t-22 -122q107 5 104 4v0v0v0z" />
    <glyph glyph-name="endash" unicode="&#x2013;" horiz-adv-x="451" 
d="M363 246v0q-1 87 0 178q-90 -2 -189 -2t-161 1q1 -53 0 -89q0 -35 -3 -89q76 3 177 3q100 0 176 -1v-1v0v0z" />
    <glyph glyph-name="emdash" unicode="&#x2014;" 
d="M13 245v0q41 0 120 1h162q84 -1 144 -2q-1 91 2 180q-51 -1 -133 -2t-165 -1q-82 0 -133 1q3 -53 3 -89q1 -35 0 -88v0v0z" />
    <glyph glyph-name="quoteleft" unicode="&#x2018;" 
d="M117 428v0q44 0 73 27q29 26 30 71q-1 59 -58 83q10 24 62 72q1 0 -81 59q-128 -96 -131 -196q4 -109 105 -116v0v0z" />
    <glyph glyph-name="quoteright" unicode="&#x2019;" 
d="M95 416v0q62 43 99 96q37 54 38 108q-1 50 -29 82q-28 33 -77 34q-99 -6 -105 -101q2 -62 53 -86q-12 -24 -66 -75q4 0 87 -58v0v0z" />
    <glyph glyph-name="quotesinglbase" unicode="&#x201a;" 
d="M95 -136v0q62 43 99 96t38 107q-1 50 -29 83t-77 34q-99 -7 -105 -102q2 -62 53 -86q-12 -24 -66 -75q4 0 87 -57v0v0z" />
    <glyph glyph-name="quotedblleft" unicode="&#x201c;" 
d="M345 404v0q96 5 103 100q0 59 -57 82q11 25 65 74q0 1 -85 58q-128 -94 -131 -197q8 -111 105 -117v0v0zM116 427v0q102 5 108 102q-4 61 -55 87q12 21 65 74q-4 0 -87 58q-132 -96 -135 -203q1 -51 27 -84q27 -33 77 -34v0v0z" />
    <glyph glyph-name="quotedblright" unicode="&#x201d;" 
d="M89 428v0q129 95 131 194q-3 109 -105 117q-95 -5 -103 -98q1 -60 56 -84q-8 -24 -61 -71l82 -58v0v0zM314 429v0q131 97 134 207q0 49 -27 82t-78 34q-100 -6 -106 -100q3 -65 55 -89q-8 -21 -62 -74q3 -1 84 -60v0v0z" />
    <glyph glyph-name="quotedblbase" unicode="&#x201e;" horiz-adv-x="433" 
d="M89 -132v0q129 95 131 195q-3 108 -105 116q-95 -5 -103 -97q1 -60 57 -84q-8 -23 -62 -72l82 -58v0v0zM314 -130v0q131 96 134 206q0 49 -27 82t-78 34q-100 -5 -106 -100q3 -64 55 -89q-8 -20 -62 -74q3 -1 84 -59v0v0z" />
    <glyph glyph-name="dagger" unicode="&#x2020;" 
d="M7 487v0h92q-1 -109 -2 -173t-2 -65q155 -1 152 -2q-3 130 -3 239q89 0 91 -1q-2 139 -1 138h-90q1 93 1 101q-80 -3 -113 -3q-32 0 -31 1q2 -90 0 -98q-88 2 -90 2q-1 -145 -2 -138l-2 -1v0v0z" />
    <glyph glyph-name="daggerdbl" unicode="&#x2021;" 
d="M8 528v0l90 2v-85h-91q2 -69 1 -118l91 1v-80q38 1 71 1q32 0 74 -1v79h89q0 38 1 63t1 54h-91l1 88h88q-1 3 1 118q-2 0 -89 -2l2 75q-71 -1 -152 0l2 -76h-88q1 6 1 -118l-2 -1v0v0z" />
    <glyph glyph-name="bullet" unicode="&#x2022;" horiz-adv-x="623" 
d="M157 204v0q136 2 142 159q0 64 -38 107q-38 44 -107 46q-136 -7 -144 -155q1 -71 38 -114q37 -42 109 -43v0v0z" />
    <glyph glyph-name="ellipsis" unicode="&#x2026;" 
d="M643 -6v0q111 -1 117 121q0 50 -31 82q-31 33 -86 34q-112 -5 -119 -117q1 -113 119 -120v0v0zM384 -23v0q109 -1 116 124q-1 51 -31 84q-31 32 -85 33q-109 -5 -115 -118q0 -54 29 -88q30 -34 86 -35v0v0zM125 0v0q109 0 116 122q-5 110 -116 118q-110 -4 -117 -118
q1 -53 30 -87t87 -35v0v0z" />
    <glyph glyph-name="perthousand" unicode="&#x2030;" 
d="M969 -14v0q94 1 139 57t44 152q0 83 -47 133q-47 51 -138 52q-88 -1 -135 -56q-47 -54 -48 -144q2 -103 54 -149q53 -46 131 -45v0v0zM968 80v0q-16 -2 -24 20q-8 21 -8 82q0 57 8 78q8 22 24 21q33 1 32 -97q1 -111 -32 -104v0v0zM571 -24v0q83 -1 135 47t54 151
q0 89 -46 143q-47 55 -140 56q-92 -2 -139 -56q-47 -55 -47 -138q0 -92 45 -147q44 -55 138 -56v0v0zM573 71v0q-16 -1 -24 22q-9 22 -9 85q0 95 33 93q33 7 32 -99q0 -58 -9 -80q-8 -21 -23 -20v-1v0v0zM180 -15v0q-1 -2 41 61q43 64 148 222t293 438q-5 0 -91 6
q-2 -2 -125 -190t-354 -527q4 0 88 -10v0v0zM189 344v0q82 -1 134 43q51 45 53 151q0 196 -185 202q-88 -1 -137 -52q-48 -50 -49 -134q-1 -91 41 -149q43 -59 143 -61v0v0zM191 438v0q-35 -7 -34 105q-1 99 33 97q17 1 25 -21q9 -21 8 -79q0 -60 -8 -82q-9 -21 -24 -20v0v0
z" />
    <glyph glyph-name="guilsinglleft" unicode="&#x2039;" 
d="M90 140v0q148 6 148 4q-92 197 -89 198q92 192 95 193q-154 3 -147 5q-89 -185 -95 -192q89 -205 88 -208v0v0z" />
    <glyph glyph-name="guilsinglright" unicode="&#x203a;" 
d="M156 144v0q87 183 89 183q-92 211 -89 209q-144 -4 -148 -2q94 -201 92 -200q-85 -180 -91 -185q145 -3 147 -5v0v0z" />
    <glyph glyph-name="fraction" unicode="&#x2044;" 
d="M99 -16v0q-6 -8 96 148q103 156 383 570q-6 -1 -122 10q-1 -3 -123 -191q-121 -189 -353 -525l119 -12v0v0z" />
    <glyph glyph-name="Euro" unicode="&#x20ac;" 
d="M1 360v0l67 1v-25h-65v-70q-1 -15 -1 -13l72 1q41 -276 302 -276q130 0 211 65q80 64 94 183q-2 0 -69 2q-68 1 -176 4q-11 -79 -58 -77q-27 -1 -43 22q-15 23 -20 83q268 2 270 2q-2 88 0 81l-273 -5v30q261 2 265 2q0 87 2 81l-265 -5q11 120 66 113q45 2 52 -83
q5 0 78 2q74 2 167 2q-14 109 -90 181q-75 72 -204 75q-266 -5 -310 -293q-71 -1 -72 0q1 -49 1 -66q-1 -16 -1 -15v-2v0v0z" />
    <glyph glyph-name="uni2120" unicode="&#x2120;" horiz-adv-x="708" 
d="M154 372v0q135 2 142 107q1 35 -20 59t-79 36q-66 12 -65 42q3 29 27 27q29 2 25 -46q101 -2 107 -3q0 121 -141 126q-130 -2 -134 -101q1 -84 94 -103q41 -10 54 -19q14 -10 13 -23q0 -25 -24 -26q-30 -5 -32 50q-109 -1 -113 1q6 -127 146 -127v0v0zM306 397v0
q110 -2 115 -4q-4 74 -4 138q-1 64 -1 102q31 -197 28 -202q34 -2 72 -2q38 -1 41 -1q10 127 20 204q5 -112 6 -182t0 -72q45 3 78 4h35q-10 152 -14 239t-4 88q-61 1 -111 3q-49 2 -51 3q-9 -110 -17 -186q-9 67 -14 114q-5 46 -5 48q-70 -3 -116 -3q-46 1 -48 1
q1 -131 -3 -211q-4 -79 -5 -82l-2 1v0v0z" />
    <glyph glyph-name="trademark" unicode="&#x2122;" horiz-adv-x="465" 
d="M7 605v0l61 1q1 -103 0 -164t-1 -62q112 1 120 0q-2 80 -3 133t-1 93q45 2 51 2q-1 96 1 104q-220 -5 -226 -3q-1 -101 -2 -101v-3v0v0zM240 398v0q111 0 118 -2q-5 142 -4 220q28 -180 26 -183q33 -2 71 -2h42q9 121 19 195q5 -110 6 -179t1 -71q45 3 78 3q34 1 35 1
q-10 154 -14 240t-4 88q-62 -1 -111 1t-52 3q-8 -105 -16 -178q-10 64 -15 108q-6 43 -6 45q-70 -2 -115 -2h-47q-3 -134 -6 -210q-4 -76 -5 -78l-1 1v0v0z" />
  </font>
</defs>
</svg>
